<svg width="263" height="343" viewBox="0 0 263 343" fill="none" xmlns="http://www.w3.org/2000/svg">
<path d="M193.03 106.881C225.381 70.1264 213.837 36.3454 204.021 24.0493C169.427 20.5001 99.7702 14.4247 97.8909 18.516C96.0116 22.6073 95.8773 47.7194 96.0451 59.7641C89.8703 59.4287 83.5165 62.5307 81.1114 64.1237C79.9033 70.5624 88.3825 78.935 92.7731 82.3164C79.4838 133.625 102.729 146.061 116.013 145.865V166.07L102.841 180.658C86.0054 180.658 49.2137 184.598 36.7298 200.36C24.2459 216.121 5.18958 317.494 1.47012 342.366H253.089C262.754 329.421 261.546 244.906 258.89 226.098C256.071 195.447 209.446 183.033 186.486 180.658L178.181 166.07C178.069 144.636 177.912 102.002 178.181 102.94C178.516 104.114 184.892 108.306 186.486 109.144C187.762 109.815 191.38 107.915 193.03 106.881Z" fill="white"/>
<path d="M128.051 215.689L141.948 203.95L131.003 188.518L116.31 202.751L121.704 215.689L94.5028 341.179H111.73H131.224L128.051 215.689Z" fill="#FD7900" stroke="#013878" stroke-width="1.52064" stroke-linecap="round"/>
<path d="M174.849 45.3837L174.849 77.5489C177.569 74.5287 184.097 69.1224 188.449 68.0352C192.801 66.9479 202.05 73.6225 206.13 77.0958L208.85 81.1733L214.29 61.693C218.37 38.1354 204.77 26.0544 191.169 15.0307C154.448 -9.88595 107.299 3.70491 101.405 8.68824C95.5119 13.6716 95.9652 80.2671 96.4186 65.317C96.7813 53.357 107.752 34.662 113.193 26.8095C134.228 40.5816 163.061 44.9307 174.849 45.3837Z" fill="#013878" stroke="#013878" stroke-width="0.506878"/>
<path d="M155.807 68.4872C149.46 64.4099 133.502 58.1581 120.446 65.769H113.646C107.903 62.1448 93.5168 56.7992 81.9109 64.4101C82.8176 69.8464 86.8071 80.8096 95.5115 81.172C104.216 81.5344 111.228 71.0544 113.646 65.769H120.446C121.806 72.4134 126.974 85.5211 136.767 84.7963C146.559 84.0714 153.541 73.6215 155.807 68.4872Z" fill="#013878"/>
<path d="M175.302 78.0008L155.807 68.4872M155.807 68.4872C149.46 64.4099 133.502 58.1581 120.446 65.769M155.807 68.4872C153.541 73.6215 146.559 84.0714 136.767 84.7963C126.974 85.5211 121.806 72.4134 120.446 65.769M120.446 65.769H113.646M113.646 65.769C107.903 62.1448 93.5168 56.7992 81.9109 64.4101C82.8176 69.8464 86.8071 80.8096 95.5115 81.172C104.216 81.5344 111.228 71.0544 113.646 65.769Z" stroke="#013878" stroke-width="1.52064"/>
<path d="M116.366 66.224L103.322 101.769L116.366 104.732" stroke="#013878" stroke-width="1.52064" stroke-linecap="round"/>
<path d="M131.327 116.302C130.383 119.049 125.89 124.178 115.468 122.713" stroke="#013878" stroke-width="1.52064" stroke-linecap="round"/>
<path d="M93.2451 81.1729C89.1649 95.9718 84.178 128.782 100.952 140.973C110.926 148.221 140.394 151.393 157.621 126.929" stroke="#013878" stroke-width="1.52064"/>
<path d="M208.397 80.267C204.921 92.3478 190.898 115.15 182.556 106.09C174.214 97.0291 176.209 99.2942 173.489 94.3109" stroke="#013878" stroke-width="1.52064" stroke-linecap="round"/>
<path d="M189.356 81.1729L185.275 86.1562M181.195 91.1395L185.275 86.1562M185.275 86.1562L191.169 91.1395" stroke="#013878" stroke-width="1.52064" stroke-linecap="round"/>
<path d="M178.022 101.559V164.53L129.966 188.994L116.366 168.155V146.862" stroke="#013878" stroke-width="1.52064" stroke-linecap="round"/>
<path d="M117.726 161.359C137.674 160.634 152.785 137.801 157.621 126.928C141.3 148.312 125.325 146.862 117.726 146.862V161.359Z" fill="#013878" stroke="#013878" stroke-width="1.52064" stroke-linecap="round"/>
<path d="M187.089 180.84L177.782 164.398L154.243 175.934L130.704 188.369L116.161 166.645L102.312 180.84L112.286 207.569L130.704 188.369L146.287 210.287L187.089 180.84Z" fill="white"/>
<path d="M130.704 188.369L146.287 210.287L187.089 180.84L177.782 164.398L154.243 175.934L130.704 188.369ZM130.704 188.369L112.286 207.569L102.312 180.84L116.161 166.645L130.704 188.369Z" stroke="#013878" stroke-width="1.52064" stroke-linecap="round"/>
<path d="M188.449 180.39C204.165 182.354 239.225 190.81 253.732 208.931C268.239 227.053 259.777 304.974 253.732 341.669H1.21472C7.41053 297.574 23.973 206.847 40.6564 196.699C61.5106 184.015 78.2846 180.39 101.406 180.39" stroke="#013878" stroke-width="1.52064" stroke-linecap="round"/>
<path d="M207.037 242.451C209.757 261.026 213.565 306.782 207.037 341.212" stroke="#013878" stroke-width="1.52064" stroke-linecap="round"/>
<path d="M54.2571 242.991C48.7841 260.948 38.1619 305.619 39.4568 340.638" stroke="#013878" stroke-width="1.52064" stroke-linecap="round"/>
</svg>
