<svg width="295" height="385" viewBox="0 0 295 385" fill="none" xmlns="http://www.w3.org/2000/svg">
<path d="M216.733 120.902C252.978 79.7239 240.044 41.8767 229.047 28.1004C190.289 24.1241 112.247 17.3173 110.142 21.9011C108.036 26.4848 107.886 54.6197 108.074 68.1142C101.156 67.7385 94.037 71.2139 91.3425 72.9985C89.989 80.2123 99.4888 89.5927 104.408 93.3812C89.519 150.866 115.562 164.799 130.445 164.579V187.216L115.687 203.56C96.8256 203.56 55.6053 207.975 41.6187 225.633C27.632 243.292 6.28192 356.867 2.11478 384.733H284.021C294.849 370.23 293.496 275.541 290.52 254.47C287.362 220.129 235.125 206.221 209.401 203.56L200.096 187.216C199.97 163.202 199.795 115.436 200.096 116.488C200.472 117.803 207.615 122.499 209.401 123.439C210.83 124.19 214.885 122.061 216.733 120.902Z" fill="white"/>
<path d="M143.936 242.803L159.506 229.651L147.244 212.361L130.782 228.308L136.825 242.803L106.35 383.398H125.651H147.492L143.936 242.803Z" fill="#FD7900" stroke="#013878" stroke-width="2.08491" stroke-linecap="round"/>
<path d="M196.363 52.0005L196.363 88.0375C199.411 84.6537 206.725 78.5967 211.601 77.3785C216.477 76.1604 226.839 83.6385 231.41 87.5298L234.458 92.0982L240.553 70.273C245.124 43.8798 229.886 30.3445 214.648 17.9939C173.507 -9.92195 120.683 5.30484 114.08 10.888C107.477 16.4712 107.985 91.0828 108.493 74.3332C108.899 60.9336 121.191 39.9882 127.286 31.1905C150.853 46.6204 183.157 51.493 196.363 52.0005Z" fill="#013878" stroke="#013878" stroke-width="2.08491"/>
<path d="M175.03 77.8817C167.92 73.3136 150.041 66.3093 135.412 74.8363H127.794C121.36 70.7759 105.242 64.7868 92.2391 73.3139C93.2549 79.4045 97.7246 91.6873 107.477 92.0934C117.229 92.4994 125.085 80.7579 127.794 74.8363H135.412C136.936 82.2806 142.727 96.966 153.698 96.1539C164.669 95.3418 172.491 83.6341 175.03 77.8817Z" fill="#013878"/>
<path d="M196.871 88.5405L175.03 77.8817M175.03 77.8817C167.92 73.3136 150.041 66.3093 135.412 74.8363M175.03 77.8817C172.491 83.6341 164.669 95.3418 153.698 96.1539C142.727 96.966 136.936 82.2806 135.412 74.8363M135.412 74.8363H127.794M127.794 74.8363C121.36 70.7759 105.242 64.7868 92.2391 73.3139C93.2549 79.4045 97.7246 91.6873 107.477 92.0934C117.229 92.4994 125.085 80.7579 127.794 74.8363Z" stroke="#013878" stroke-width="2.08491"/>
<path d="M130.842 75.354L116.228 115.177L130.842 118.497" stroke="#013878" stroke-width="2.08491" stroke-linecap="round"/>
<path d="M147.605 131.459C146.548 134.537 141.513 140.283 129.837 138.642" stroke="#013878" stroke-width="2.08491" stroke-linecap="round"/>
<path d="M104.938 92.0967C100.366 108.677 94.7791 145.437 113.572 159.095C124.746 167.216 157.761 170.769 177.062 143.36" stroke="#013878" stroke-width="2.08491"/>
<path d="M233.951 91.085C230.057 104.62 214.345 130.167 205 120.016C195.654 109.865 197.889 112.403 194.841 106.819" stroke="#013878" stroke-width="2.08491" stroke-linecap="round"/>
<path d="M212.617 92.0967L208.045 97.6799M203.474 103.263L208.045 97.6799M208.045 97.6799L214.648 103.263" stroke="#013878" stroke-width="2.08491" stroke-linecap="round"/>
<path d="M199.92 114.94V185.491L146.08 212.9L130.842 189.552V165.697" stroke="#013878" stroke-width="2.08491" stroke-linecap="round"/>
<path d="M132.365 181.938C154.714 181.126 171.645 155.545 177.062 143.364C158.777 167.321 140.879 165.696 132.365 165.696V181.938Z" fill="#013878" stroke="#013878" stroke-width="2.08491" stroke-linecap="round"/>
<path d="M210.078 203.762L199.65 185.341L173.278 198.266L146.906 212.198L130.612 187.859L115.097 203.762L126.271 233.709L146.906 212.198L164.365 236.754L210.078 203.762Z" fill="white"/>
<path d="M146.906 212.198L164.365 236.754L210.078 203.762L199.65 185.341L173.278 198.266L146.906 212.198ZM146.906 212.198L126.271 233.709L115.097 203.762L130.612 187.859L146.906 212.198Z" stroke="#013878" stroke-width="2.08491" stroke-linecap="round"/>
<path d="M211.602 203.258C229.21 205.458 268.489 214.932 284.742 235.235C300.996 255.537 291.515 342.838 284.742 383.95H1.82959C8.7712 334.548 27.3273 232.9 46.0188 221.531C69.3833 207.319 88.1764 203.258 114.08 203.258" stroke="#013878" stroke-width="2.08491" stroke-linecap="round"/>
<path d="M232.426 272.792C235.474 293.602 239.74 344.865 232.426 383.44" stroke="#013878" stroke-width="2.08491" stroke-linecap="round"/>
<path d="M61.2547 273.396C55.1229 293.515 43.2221 343.562 44.6729 382.797" stroke="#013878" stroke-width="2.08491" stroke-linecap="round"/>
</svg>
