<svg width="147" height="72" viewBox="0 0 147 72" fill="none" xmlns="http://www.w3.org/2000/svg">
<path d="M8.86157 11.6892C8.86157 12.2411 8.75997 12.7192 8.56074 13.1216C8.35952 13.5241 8.10053 13.8628 7.77978 14.1397C7.46102 14.4166 7.10042 14.6298 6.69798 14.7812C6.29753 14.9326 5.89111 15.0262 5.47672 15.0641V16.1021H3.4227V15.0641H3.40278C2.7812 15.0023 2.25524 14.8669 1.82491 14.6597C1.39259 14.4525 1.04195 14.1855 0.769013 13.8588C0.496073 13.532 0.300832 13.1475 0.179304 12.7073C0.0597681 12.267 0 11.7828 0 11.2549V7.01138C0 6.47148 0.0976214 5.99333 0.294855 5.57894C0.490097 5.16455 0.751082 4.81192 1.07383 4.52305C1.39857 4.23417 1.76514 4.01502 2.17754 3.86361C2.58795 3.7122 3.00433 3.63649 3.4227 3.63649V2.97705H5.47672L5.49665 3.63649C5.90904 3.66239 6.31746 3.75005 6.71989 3.89947C7.12034 4.05088 7.48094 4.26804 7.7997 4.55094C8.12045 4.83583 8.37745 5.18248 8.5727 5.59687C8.76594 6.01326 8.86357 6.48941 8.86357 7.02931V11.6892H8.86157ZM3.4227 5.29803C2.96448 5.36179 2.60388 5.51718 2.33891 5.7702C2.07195 6.02123 1.93847 6.38581 1.93847 6.86395V11.8785C1.93847 12.1175 1.9823 12.3287 2.07195 12.51C2.15961 12.6913 2.27516 12.8467 2.41462 12.9722C2.55408 13.0977 2.71147 13.1954 2.89077 13.2651C3.06808 13.3348 3.24539 13.3747 3.4227 13.3886V5.29803ZM6.96096 6.86395C6.96096 6.38581 6.81951 6.01525 6.53661 5.75028C6.2557 5.4873 5.90307 5.33589 5.47672 5.29803L5.49665 13.3866C5.66001 13.3607 5.82736 13.3109 6.00268 13.2352C6.178 13.1615 6.33738 13.0599 6.48082 12.9344C6.62427 12.8089 6.73982 12.6574 6.82748 12.4821C6.91513 12.3068 6.95896 12.1056 6.95896 11.8785V6.86395H6.96096Z" fill="#55565B"/>
<path d="M18.9801 12.7468C18.9801 13.8903 18.7212 14.755 18.2032 15.3387C17.6852 15.9224 16.8703 16.2153 15.7567 16.2153C14.645 16.2153 13.8341 15.9364 13.3281 15.3765C12.8221 14.8187 12.571 14.0099 12.571 12.954V6.3556C12.571 5.84159 12.6308 5.36943 12.7504 4.94109C12.8699 4.51475 13.0552 4.14618 13.3082 3.83937C13.5612 3.53057 13.8939 3.2915 14.3043 3.12415C14.7167 2.95481 15.2048 2.86914 15.7746 2.86914C16.3822 2.86914 16.8903 2.94684 17.3007 3.10423C17.7111 3.26161 18.0398 3.49073 18.2868 3.79156C18.5339 4.09239 18.7112 4.45896 18.8188 4.88531C18.9264 5.31165 18.9801 5.79776 18.9801 6.33766V12.7468ZM16.9261 6.18625C16.9261 5.82167 16.8464 5.49494 16.689 5.20606C16.5297 4.91718 16.2288 4.77175 15.7866 4.77175C15.5435 4.77175 15.3483 4.82554 15.1968 4.93312C15.0434 5.0407 14.9279 5.17219 14.8442 5.32958C14.7605 5.48697 14.7028 5.66229 14.6729 5.85753C14.641 6.05277 14.6251 6.23208 14.6251 6.39544V12.9958C14.6251 13.3345 14.7107 13.6393 14.8821 13.9102C15.0534 14.1792 15.3483 14.3147 15.7666 14.3147C16.185 14.3147 16.4819 14.1732 16.6612 13.8903C16.8385 13.6074 16.9261 13.2648 16.9261 12.8623V6.18625Z" fill="#55565B"/>
<path d="M27.2742 16.1025V10.3708H24.9134V16.1025H22.8594V2.97949H24.9134V8.46618H27.2742V2.97949H29.3282V16.1025H27.2742Z" fill="#55565B"/>
<path d="M34.1775 16.1025V18.5928H32.4482V14.4071L33.2272 14.2377C33.5818 13.8612 33.8229 13.4229 33.9504 12.9268C34.0779 12.4307 34.1536 11.7733 34.1775 10.9565L34.4066 2.98145H40.3396V14.2576H41.1763V18.5948H39.4471V16.1045H34.1775V16.1025ZM36.0243 10.9425C35.9984 11.6956 35.9486 12.3451 35.8709 12.8909C35.7952 13.4368 35.6498 13.8911 35.4346 14.2556H38.2876V4.88405H36.1758L36.0243 10.9425Z" fill="#55565B"/>
<path d="M53.5019 2.8667C54.0478 2.8667 54.5159 2.94041 54.9104 3.09182C55.3029 3.24124 55.6296 3.45043 55.8906 3.71739C56.1496 3.98436 56.3409 4.30312 56.4624 4.67169C56.5819 5.04025 56.6417 5.44468 56.6417 5.88497L54.6435 6.39499C54.6435 5.91884 54.5518 5.52836 54.3705 5.22753C54.1872 4.9247 53.8964 4.77528 53.4939 4.77528C53.2548 4.77528 53.0596 4.82509 52.9102 4.9267C52.7588 5.0283 52.6432 5.15581 52.5615 5.31319C52.4799 5.47058 52.4221 5.64192 52.3902 5.82321C52.3603 6.0065 52.3444 6.17783 52.3444 6.34319V13.0133C52.3444 13.1388 52.3563 13.2763 52.3822 13.4277C52.4061 13.5791 52.4599 13.7205 52.5436 13.852C52.6253 13.9835 52.7389 14.0951 52.8823 14.1827C53.0257 14.2724 53.211 14.3162 53.4401 14.3162C54.1952 14.3162 54.5777 13.7763 54.5897 12.6945C54.9323 12.7563 55.275 12.8101 55.6177 12.8539C55.9603 12.8977 56.303 12.9455 56.6457 12.9953C56.6198 13.9875 56.3448 14.7744 55.8169 15.3522C55.2909 15.9319 54.514 16.2208 53.4879 16.2208C52.3982 16.2208 51.5933 15.9479 51.0733 15.4C50.5533 14.8521 50.2924 14.0512 50.2924 12.9953V6.44878C50.2924 5.95869 50.3461 5.49648 50.4537 5.06416C50.5613 4.62985 50.7426 4.24933 50.9976 3.9226C51.2506 3.59587 51.5813 3.33886 51.9957 3.1496C52.4022 2.96034 52.9042 2.8667 53.5019 2.8667Z" fill="#55565B"/>
<path d="M66.4181 12.7468C66.4181 13.8903 66.1571 14.755 65.6391 15.3387C65.1211 15.9224 64.3043 16.2153 63.1926 16.2153C62.0789 16.2153 61.2701 15.9364 60.764 15.3765C60.26 14.8187 60.007 14.0099 60.007 12.954V6.3556C60.007 5.84159 60.0667 5.36943 60.1863 4.94109C60.3078 4.51475 60.4931 4.14618 60.7461 3.83937C61.0011 3.53057 61.3318 3.2915 61.7422 3.12415C62.1526 2.95481 62.6427 2.86914 63.2105 2.86914C63.8182 2.86914 64.3262 2.94684 64.7386 3.10423C65.149 3.26161 65.4777 3.49073 65.7228 3.79156C65.9698 4.09239 66.1471 4.45896 66.2547 4.88531C66.3623 5.31165 66.4161 5.79776 66.4161 6.33766V12.7468H66.4181ZM64.364 6.18625C64.364 5.82167 64.2843 5.49494 64.125 5.20606C63.9676 4.91718 63.6667 4.77175 63.2225 4.77175C62.9814 4.77175 62.7862 4.82554 62.6328 4.93312C62.4794 5.0407 62.3618 5.17219 62.2801 5.32958C62.1965 5.48697 62.1387 5.66229 62.1068 5.85753C62.0749 6.05277 62.061 6.23208 62.061 6.39544V12.9958C62.061 13.3345 62.1466 13.6393 62.318 13.9102C62.4893 14.1792 62.7842 14.3147 63.2025 14.3147C63.6209 14.3147 63.9178 14.1732 64.0951 13.8903C64.2724 13.6074 64.362 13.2648 64.362 12.8623V6.18625H64.364Z" fill="#55565B"/>
<path d="M71.1917 16.1025V18.5928H69.4604V14.4071L70.2414 14.2377C70.596 13.8612 70.8371 13.4229 70.9646 12.9268C71.0901 12.4307 71.1678 11.7733 71.1917 10.9565L71.4188 2.98145H77.3538V14.2576H78.1905V18.5948H76.4593V16.1045H71.1917V16.1025ZM73.0366 10.9425C73.0107 11.6956 72.9589 12.3451 72.8832 12.8909C72.8074 13.4368 72.662 13.8911 72.4468 14.2556H75.2998V4.88405H73.188L73.0366 10.9425Z" fill="#55565B"/>
<path d="M81.5197 16.1025V2.97949H87.3968V4.88409H83.5737V8.46618H86.9007V10.4086H83.5737V14.1979H87.3968V16.1025H81.5197Z" fill="#55565B"/>
<path d="M95.4231 7.88138L92.6459 16.1014H90.6676V2.98042H92.6658V11.2961H92.7416L95.4988 2.98042H97.4971V16.1034H95.4809V7.88138H95.4231ZM92.9507 0C92.9627 0.139458 93.0045 0.278917 93.0743 0.424352C93.144 0.569787 93.2336 0.703268 93.3412 0.82878C93.4488 0.954293 93.5723 1.05988 93.7118 1.14157C93.8512 1.22325 94.0106 1.26309 94.1859 1.26309C94.3772 1.26309 94.5445 1.22325 94.69 1.14157C94.8374 1.05988 94.9589 0.956285 95.0625 0.82878C95.1641 0.703268 95.2418 0.569787 95.2996 0.424352C95.3554 0.278917 95.3853 0.139458 95.3853 0H96.8874C96.8615 0.264971 96.7918 0.549864 96.6763 0.858664C96.5627 1.16547 96.3934 1.44837 96.1722 1.70737C95.9491 1.96437 95.6781 2.17754 95.3534 2.34888C95.0307 2.51822 94.6402 2.60388 94.1839 2.60388C93.6899 2.60388 93.2715 2.52021 92.9288 2.34888C92.5862 2.17953 92.3072 1.96437 92.0901 1.70737C91.8749 1.44837 91.7155 1.16547 91.6159 0.858664C91.5123 0.549864 91.4565 0.264971 91.4446 0H92.9507Z" fill="#55565B"/>
<path d="M104.496 2.8667C105.042 2.8667 105.512 2.94041 105.903 3.09182C106.295 3.24124 106.622 3.45043 106.883 3.71739C107.142 3.98436 107.333 4.30312 107.453 4.67169C107.574 5.04025 107.634 5.44468 107.634 5.88497L105.638 6.39499C105.638 5.91884 105.546 5.52836 105.365 5.22753C105.182 4.9247 104.889 4.77528 104.488 4.77528C104.249 4.77528 104.054 4.82509 103.904 4.9267C103.753 5.0283 103.636 5.15581 103.556 5.31319C103.474 5.47058 103.416 5.64192 103.386 5.82321C103.355 6.0065 103.339 6.17783 103.339 6.34319V13.0133C103.339 13.1388 103.351 13.2763 103.377 13.4277C103.4 13.5791 103.454 13.7205 103.536 13.852C103.618 13.9835 103.731 14.0951 103.875 14.1827C104.02 14.2724 104.205 14.3162 104.43 14.3162C105.186 14.3162 105.568 13.7763 105.582 12.6945C105.925 12.7563 106.265 12.8101 106.61 12.8539C106.953 12.8977 107.295 12.9455 107.636 12.9953C107.61 13.9875 107.335 14.7744 106.809 15.3522C106.283 15.9319 105.506 16.2208 104.48 16.2208C103.39 16.2208 102.584 15.9479 102.066 15.4C101.546 14.8521 101.285 14.0512 101.285 12.9953V6.44878C101.285 5.95869 101.338 5.49648 101.446 5.06416C101.554 4.62985 101.733 4.24933 101.988 3.9226C102.241 3.59587 102.574 3.33886 102.986 3.1496C103.396 2.96034 103.901 2.8667 104.496 2.8667Z" fill="#55565B"/>
<path d="M114.368 4.88409V16.1025H112.314V4.88409H110.184V2.97949H116.498V4.88409H114.368Z" fill="#55565B"/>
<path d="M124.391 9.23917C124.975 9.42645 125.375 9.78505 125.59 10.313C125.807 10.841 125.913 11.4426 125.913 12.122C125.913 13.4926 125.618 14.4967 125.03 15.1402C124.439 15.7818 123.536 16.1005 122.319 16.1005H119.58V2.97949H122.47C123.638 2.97949 124.485 3.28431 125.012 3.89394C125.538 4.50357 125.801 5.38614 125.801 6.54165C125.801 7.14531 125.696 7.67326 125.489 8.12749C125.277 8.57973 124.913 8.91842 124.393 9.14554V9.23917H124.391ZM123.841 6.5815C123.841 5.97784 123.72 5.54353 123.48 5.28055C123.239 5.01757 122.839 4.88409 122.281 4.88409H121.636V8.2789H122.301C122.833 8.2789 123.221 8.13347 123.47 7.84459C123.716 7.55372 123.841 7.13335 123.841 6.5815ZM123.953 11.9546C123.953 11.339 123.841 10.8808 123.612 10.578C123.383 10.2771 122.982 10.1257 122.413 10.1257H121.634V14.1979H122.45C122.779 14.1979 123.042 14.1381 123.239 14.0186C123.437 13.8991 123.588 13.7397 123.696 13.5385C123.803 13.3373 123.873 13.0982 123.907 12.8232C123.939 12.5463 123.953 12.2555 123.953 11.9546Z" fill="#55565B"/>
<path d="M134.434 7.88045L131.659 16.1005H129.68V2.97949H131.679V11.2952H131.754L134.512 2.97949H136.51V16.1025H134.494V7.88045H134.434Z" fill="#55565B"/>
<path d="M139.912 16.1025L140.653 11.9327C140.741 11.4924 140.883 11.0919 141.072 10.7353C141.261 10.3767 141.528 10.0958 141.871 9.89459C141.261 9.64356 140.845 9.26304 140.616 8.75501C140.389 8.24699 140.273 7.63337 140.273 6.91815C140.273 5.62517 140.588 4.64498 141.215 3.97957C141.841 3.31415 142.702 2.98145 143.791 2.98145H146.816V16.1045H144.764V10.5042H144.232C143.877 10.5042 143.548 10.6417 143.251 10.9206C142.953 11.1975 142.741 11.6876 142.614 12.3909L141.986 16.1045H139.912V16.1025ZM143.963 4.88405C143.343 4.88405 142.909 5.06933 142.66 5.43989C142.413 5.81045 142.291 6.29856 142.291 6.90022C142.291 7.54173 142.447 7.98401 142.757 8.22906C143.066 8.47411 143.465 8.59763 143.945 8.59763H144.762V4.88405H143.963Z" fill="#55565B"/>
<path d="M6.18957 27.0257L2.74694 37.22H0.29248V20.9473H2.76886V31.2572H2.86449L6.28321 20.9473H8.75959V37.22H6.26129V27.0257H6.18957Z" fill="#55565B"/>
<path d="M21.2135 37.22V30.1137H18.2888V37.22H15.7407V20.9473H18.2888V27.7508H21.2135V20.9473H23.7616V37.22H21.2135Z" fill="#55565B"/>
<path d="M36.285 37.22V30.1137H33.3584V37.22H30.8123V20.9473H33.3584V27.7508H36.285V20.9473H38.8311V37.22H36.285Z" fill="#55565B"/>
<path d="M53.6917 33.0586C53.6917 34.477 53.3709 35.5489 52.7254 36.2741C52.0839 36.9992 51.0738 37.3598 49.6912 37.3598C48.3126 37.3598 47.3105 37.0132 46.6829 36.3199C46.0553 35.6266 45.7426 34.6245 45.7426 33.3156V25.1333C45.7426 24.4938 45.8163 23.9101 45.9677 23.3802C46.1151 22.8502 46.3462 22.394 46.661 22.0115C46.9738 21.629 47.3862 21.3341 47.8962 21.1229C48.4042 20.9117 49.0118 20.8062 49.7171 20.8062C50.4702 20.8062 51.1017 20.9018 51.6118 21.099C52.1198 21.2943 52.5282 21.5772 52.835 21.9517C53.1398 22.3262 53.359 22.7785 53.4924 23.3084C53.6259 23.8384 53.6937 24.438 53.6937 25.1074V33.0586H53.6917ZM51.1436 24.9222C51.1436 24.4699 51.044 24.0655 50.8487 23.7069C50.6515 23.3483 50.2789 23.169 49.7291 23.169C49.4282 23.169 49.1872 23.2347 48.9979 23.3682C48.8086 23.4997 48.6632 23.6631 48.5616 23.8583C48.458 24.0535 48.3883 24.2707 48.3504 24.5137C48.3106 24.7548 48.2926 24.9779 48.2926 25.1812V33.3634C48.2926 33.7837 48.3982 34.1623 48.6094 34.497C48.8226 34.8317 49.1892 34.999 49.7071 34.999C50.2271 34.999 50.5957 34.8237 50.8148 34.4731C51.034 34.1224 51.1456 33.6981 51.1456 33.198V24.9222H51.1436Z" fill="#55565B"/>
<path d="M66.6153 28.7091C67.3384 28.9442 67.8345 29.3885 68.1015 30.0419C68.3684 30.6974 68.5019 31.4445 68.5019 32.2852C68.5019 33.9846 68.1354 35.2318 67.4062 36.0267C66.675 36.8216 65.5554 37.22 64.0452 37.22H60.6484V20.9473H64.2365C65.6809 20.9473 66.7308 21.3258 67.3843 22.0809C68.0357 22.8379 68.3645 23.9317 68.3645 25.3661C68.3645 26.1152 68.233 26.7686 67.974 27.3305C67.715 27.8923 67.2627 28.3126 66.6192 28.5936V28.7091H66.6153ZM65.9319 25.4119C65.9319 24.6628 65.7825 24.1249 65.4856 23.7982C65.1868 23.4715 64.6907 23.3081 63.9994 23.3081H63.1965V27.5157H64.0213C64.6828 27.5157 65.1649 27.3364 65.4737 26.9778C65.7785 26.6192 65.9319 26.0993 65.9319 25.4119ZM66.0734 32.076C66.0734 31.313 65.9319 30.7432 65.649 30.3687C65.3661 29.9941 64.87 29.8068 64.1628 29.8068H63.1945V34.8572H64.2086C64.617 34.8572 64.9438 34.7835 65.1868 34.6341C65.4319 34.4867 65.6191 34.2874 65.7546 34.0384C65.8881 33.7894 65.9738 33.4925 66.0136 33.1499C66.0534 32.8092 66.0734 32.4506 66.0734 32.076Z" fill="#55565B"/>
<path d="M81.3104 37.22L80.6728 33.8312H77.6546C77.543 34.391 77.4374 34.9568 77.3358 35.5246C77.2342 36.0944 77.1366 36.6602 77.0409 37.22H74.447C74.9969 34.4926 75.5467 31.7812 76.0966 29.0837C76.6465 26.3861 77.1983 23.6747 77.7482 20.9473H80.5792L83.9043 37.22H81.3104ZM79.093 24.7106C78.9356 25.8323 78.7702 26.9519 78.5989 28.0656C78.4236 29.1793 78.2363 30.3149 78.0311 31.4684H80.2704L79.2085 24.7106H79.093Z" fill="#55565B"/>
<path d="M97.9136 20.9468V34.8568H98.9755V40.3036H96.8517V37.2176H89.9645V20.9448H92.5126V34.8548H95.3655V20.9448H97.9136V20.9468Z" fill="#55565B"/>
<path d="M110.933 27.0257L107.491 37.22H105.038V20.9473H107.515V31.2572H107.608L111.029 20.9473H113.505V37.22H111.005V27.0257H110.933Z" fill="#55565B"/>
<path d="M119.873 37.22L120.793 32.0481C120.903 31.5023 121.076 31.0062 121.311 30.5619C121.548 30.1176 121.879 29.769 122.301 29.52C121.548 29.2092 121.028 28.737 120.745 28.1074C120.462 27.4759 120.321 26.7169 120.321 25.8283C120.321 24.2245 120.709 23.0093 121.486 22.1845C122.265 21.3597 123.331 20.9473 124.684 20.9473H128.433V37.22H125.887V30.275H125.228C124.786 30.275 124.381 30.4464 124.013 30.791C123.642 31.1337 123.379 31.7413 123.222 32.6159L122.443 37.222H119.873V37.22ZM124.897 23.3081C124.126 23.3081 123.586 23.5372 123.281 23.9974C122.975 24.4576 122.821 25.0593 122.821 25.8084C122.821 26.6033 123.014 27.1532 123.399 27.456C123.783 27.7588 124.276 27.9122 124.873 27.9122H125.887V23.3081H124.897Z" fill="#55565B"/>
<path d="M140.217 33.6674L139.042 30.6511L138.032 27.7982H137.912V37.2196H135.366V20.9468H137.843L139.622 25.5748L140.911 29.1051H141.028L142.349 25.4812L144.118 20.9448H146.569V37.2176H144.023V27.842H143.929L142.897 30.7408L141.745 33.6634H140.217V33.6674Z" fill="#55565B"/>
<path d="M14.9358 42.1631H0.356445C19.7431 62.6794 47.4893 70.4731 70.8087 71.4892C71.8965 71.535 72.9703 71.5649 74.0382 71.5828C74.3589 71.5868 74.6777 71.5908 74.9965 71.5927C75.9687 71.6027 76.9389 71.6067 77.8912 71.5947C93.0224 71.3756 109.829 68.0844 124.446 60.2946C132.832 55.824 140.5 49.8771 146.712 42.1651C146.712 42.1651 146.712 42.1651 146.71 42.1671C111.345 76.7647 40.628 70.7739 14.9358 42.1631Z" fill="#EF2B2D"/>
<path d="M146.71 42.1646C146.692 42.1746 146.676 42.1865 146.66 42.1985C146.106 42.585 145.59 42.9336 145.104 43.2564C144.823 43.4417 144.558 43.617 144.297 43.7823C144.08 43.9238 143.857 44.0553 143.64 44.1947C142.907 44.6649 142.17 45.1331 141.427 45.5814C141.142 45.7527 140.855 45.9161 140.568 46.0854C139.809 46.5337 139.048 46.9759 138.281 47.4003C138 47.5557 137.717 47.7011 137.436 47.8545C136.655 48.2769 135.874 48.6953 135.085 49.0937C134.808 49.2332 134.527 49.3647 134.25 49.5041C133.452 49.9006 132.653 50.2911 131.846 50.6636C131.571 50.7911 131.294 50.9087 131.017 51.0342C130.202 51.4027 129.387 51.7653 128.567 52.112C128.29 52.2275 128.011 52.3351 127.734 52.4487C126.909 52.7874 126.084 53.1221 125.253 53.4368C124.97 53.5444 124.686 53.644 124.403 53.7476C123.574 54.0544 122.743 54.3593 121.908 54.6441C121.618 54.7458 121.323 54.8354 121.032 54.931C120.203 55.206 119.372 55.4809 118.539 55.7359C118.235 55.8295 117.928 55.9112 117.623 56.0029C116.8 56.2459 115.975 56.489 115.151 56.7121C114.826 56.7998 114.501 56.8755 114.176 56.9611C113.366 57.1723 112.557 57.3835 111.744 57.5748C111.395 57.6564 111.045 57.7282 110.696 57.8079C109.905 57.9872 109.114 58.1665 108.323 58.3278C107.947 58.4035 107.57 58.4673 107.192 58.541C106.427 58.6884 105.661 58.8379 104.896 58.9693C104.474 59.0411 104.052 59.0988 103.629 59.1666C102.908 59.2821 102.187 59.4017 101.466 59.5013C100.98 59.571 100.496 59.6208 100.009 59.6826C99.352 59.7662 98.6946 59.8559 98.0371 59.9276C97.4315 59.9934 96.8278 60.0412 96.2242 60.097C95.6882 60.1468 95.1503 60.2045 94.6144 60.2464C93.4728 60.336 92.3353 60.4078 91.1997 60.4635C91.1977 60.4635 91.1957 60.4635 91.1957 60.4635C90.5303 60.4954 89.8669 60.5213 89.2054 60.5412C89.1935 60.5412 89.1835 60.5432 89.1716 60.5432C88.5181 60.5631 87.8686 60.5771 87.2171 60.5851C87.1952 60.5851 87.1733 60.5851 87.1514 60.5871C86.5139 60.595 85.8764 60.597 85.2408 60.595C85.203 60.595 85.1671 60.593 85.1313 60.593C84.5097 60.589 83.8881 60.5811 83.2685 60.5671C83.2227 60.5671 83.1768 60.5651 83.131 60.5632C82.5214 60.5492 81.9137 60.5313 81.3061 60.5074C81.2503 60.5054 81.1945 60.5034 81.1368 60.4994C80.5411 60.4755 79.9474 60.4456 79.3557 60.4117C79.288 60.4078 79.2222 60.4038 79.1545 60.3978C78.5747 60.3639 77.997 60.3261 77.4212 60.2822C77.3375 60.2763 77.2539 60.2683 77.1682 60.2623C76.6084 60.2185 76.0505 60.1727 75.4947 60.1209C75.4011 60.1129 75.3074 60.1009 75.2138 60.093C74.6699 60.0412 74.126 59.9854 73.5861 59.9256C73.4785 59.9137 73.3709 59.8997 73.2634 59.8878C72.7374 59.828 72.2114 59.7662 71.6875 59.6965C71.5719 59.6826 71.4564 59.6666 71.3408 59.6507C70.8288 59.583 70.3188 59.5132 69.8108 59.4375C69.6813 59.4176 69.5538 59.3977 69.4243 59.3778C68.9322 59.302 68.4401 59.2263 67.95 59.1447C67.8086 59.1208 67.6691 59.0949 67.5276 59.0709C67.0515 58.9893 66.5773 58.9076 66.1052 58.8179C65.9538 58.79 65.8063 58.7602 65.6549 58.7323C65.1947 58.6446 64.7365 58.555 64.2803 58.4613C64.1169 58.4275 63.9555 58.3916 63.7922 58.3577C63.3519 58.2661 62.9136 58.1724 62.4773 58.0728C62.3019 58.033 62.1286 57.9911 61.9533 57.9513C61.5309 57.8537 61.1106 57.7561 60.6922 57.6544C60.5089 57.6086 60.3276 57.5628 60.1443 57.515C59.7379 57.4134 59.3335 57.3118 58.931 57.2042C58.7338 57.1524 58.5406 57.0966 58.3453 57.0428C57.9608 56.9392 57.5743 56.8336 57.1938 56.7241C56.9886 56.6663 56.7874 56.6045 56.5822 56.5428C56.2136 56.4352 55.841 56.3256 55.4765 56.2121C55.2693 56.1483 55.0641 56.0806 54.8569 56.0148C54.4983 55.9013 54.1416 55.7877 53.787 55.6702C53.5719 55.5984 53.3587 55.5247 53.1455 55.451C52.8048 55.3335 52.4622 55.2199 52.1255 55.0984C51.9023 55.0207 51.6832 54.937 51.4601 54.8553C51.1353 54.7358 50.8106 54.6202 50.4898 54.4967C50.2587 54.4091 50.0336 54.3194 49.8045 54.2298C49.4957 54.1082 49.1869 53.9907 48.8821 53.8672C48.647 53.7715 48.4179 53.6739 48.1848 53.5763C47.8899 53.4548 47.5951 53.3332 47.3042 53.2077C47.0651 53.1041 46.8301 52.9965 46.593 52.8929C46.3141 52.7694 46.0312 52.6479 45.7562 52.5204C45.5152 52.4088 45.2781 52.2953 45.039 52.1837C44.772 52.0562 44.5031 51.9347 44.2401 51.8052C43.9951 51.6856 43.754 51.5621 43.5109 51.4406C43.2599 51.3151 43.0049 51.1916 42.7579 51.0621C42.5128 50.9346 42.2718 50.8051 42.0287 50.6756C41.7876 50.5481 41.5446 50.4206 41.3055 50.2911C41.0605 50.1576 40.8234 50.0201 40.5823 49.8826C40.3532 49.7531 40.1201 49.6236 39.891 49.4922C39.646 49.3487 39.4069 49.2033 39.1658 49.0578C38.9487 48.9284 38.7275 48.7989 38.5124 48.6654C38.2713 48.5179 38.0382 48.3645 37.8011 48.2151C37.5899 48.0816 37.3788 47.9502 37.1716 47.8147C36.9265 47.6553 36.6894 47.4919 36.4484 47.3286C36.2551 47.1971 36.0599 47.0696 35.8686 46.9381C35.6216 46.7667 35.3825 46.5914 35.1395 46.4181C34.9622 46.2906 34.7789 46.1631 34.6035 46.0336C34.3645 45.8563 34.1294 45.675 33.8943 45.4957C33.723 45.3642 33.5477 45.2347 33.3783 45.1032C33.1372 44.9139 32.9022 44.7207 32.6651 44.5275C32.5097 44.3999 32.3483 44.2744 32.1949 44.1469C31.9439 43.9377 31.7028 43.7266 31.4578 43.5134C31.3243 43.3978 31.1868 43.2843 31.0533 43.1667C30.6808 42.836 30.3142 42.4993 29.9556 42.1606H14.9399C40.6281 70.7735 111.345 76.7642 146.71 42.1646Z" fill="#00A0DC"/>
<path d="M89.8192 55.571C89.5443 55.573 89.2674 55.573 88.9944 55.573C88.8709 55.573 88.7514 55.571 88.6279 55.571C88.2274 55.569 87.829 55.567 87.4325 55.559C87.2153 55.5571 86.9982 55.5511 86.781 55.5471C86.3886 55.5391 86.0001 55.5292 85.6116 55.5172C85.3924 55.5112 85.1753 55.5033 84.9581 55.4933C84.5756 55.4794 84.1951 55.4634 83.8166 55.4435C83.5974 55.4315 83.3783 55.4196 83.1591 55.4076C82.7866 55.3877 82.416 55.3658 82.0474 55.3399C81.8263 55.326 81.6071 55.31 81.386 55.2941C81.0254 55.2662 80.6648 55.2403 80.3062 55.2084C80.0811 55.1885 79.8579 55.1686 79.6348 55.1486C79.2842 55.1148 78.9355 55.0829 78.5889 55.047C78.3637 55.0231 78.1406 54.9992 77.9175 54.9753C77.5788 54.9375 77.2401 54.8996 76.9034 54.8578C76.6743 54.8299 76.4472 54.8 76.2201 54.7701C75.8933 54.7283 75.5686 54.6844 75.2459 54.6406C75.0148 54.6067 74.7856 54.5729 74.5545 54.539C74.2398 54.4932 73.925 54.4434 73.6122 54.3956C73.3811 54.3577 73.15 54.3179 72.9189 54.278C72.6141 54.2262 72.3112 54.1764 72.0104 54.1206C71.7753 54.0788 71.5442 54.033 71.3111 53.9891C71.0203 53.9334 70.7274 53.8776 70.4385 53.8198C70.2015 53.772 69.9684 53.7222 69.7333 53.6744C69.4543 53.6146 69.1734 53.5568 68.8965 53.4951C68.6574 53.4413 68.4204 53.3855 68.1833 53.3297C67.9183 53.2679 67.6514 53.2062 67.3884 53.1424C67.1453 53.0827 66.9062 53.0229 66.6652 52.9611C66.4122 52.8954 66.1591 52.8316 65.9101 52.7659C65.6651 52.7002 65.426 52.6324 65.1829 52.5647C64.9419 52.4989 64.7008 52.4312 64.4617 52.3635C64.2167 52.2917 63.9776 52.218 63.7366 52.1463C63.5055 52.0766 63.2744 52.0068 63.0452 51.9351C62.8022 51.8594 62.5631 51.7797 62.3221 51.7C62.1029 51.6283 61.8798 51.5566 61.6626 51.4829C61.4196 51.4012 61.1805 51.3155 60.9414 51.2299C60.7322 51.1562 60.5211 51.0824 60.3139 51.0067C60.0728 50.9191 59.8357 50.8274 59.5966 50.7358C59.3974 50.6601 59.1962 50.5864 58.999 50.5087C58.7599 50.413 58.5248 50.3174 58.2877 50.2218C58.0965 50.1441 57.9052 50.0684 57.7179 49.9887C57.4829 49.8891 57.2498 49.7875 57.0187 49.6859C56.8374 49.6062 56.6541 49.5285 56.4748 49.4468C56.2397 49.3412 56.0086 49.2316 55.7775 49.122C55.6081 49.0424 55.4348 48.9627 55.2675 48.883C55.0344 48.7714 54.8053 48.6539 54.5762 48.5403C54.4168 48.4586 54.2534 48.3809 54.096 48.2993C53.8649 48.1797 53.6398 48.0562 53.4127 47.9347C53.2633 47.853 53.1098 47.7733 52.9624 47.6916C52.7373 47.5661 52.5162 47.4386 52.295 47.3111C52.1516 47.2294 52.0061 47.1477 51.8647 47.064C51.6435 46.9326 51.4284 46.7991 51.2112 46.6656C51.0777 46.5839 50.9403 46.5022 50.8088 46.4186C50.5936 46.2811 50.3824 46.1416 50.1713 46.0042C50.0438 45.9205 49.9143 45.8388 49.7907 45.7531C49.5776 45.6097 49.3724 45.4623 49.1652 45.3148C49.0496 45.2332 48.9301 45.1535 48.8165 45.0698C48.6093 44.9204 48.4081 44.767 48.2049 44.6136C48.0973 44.5319 47.9858 44.4522 47.8782 44.3685C47.671 44.2071 47.4698 44.0418 47.2685 43.8784C47.1749 43.8027 47.0773 43.727 46.9836 43.6513C46.7625 43.466 46.5473 43.2788 46.3342 43.0915C46.2664 43.0317 46.1967 42.9759 46.131 42.9162C45.854 42.6671 45.5831 42.4161 45.3201 42.1631H32.5756H29.9438C30.3025 42.5018 30.667 42.8385 31.0416 43.1692C31.1731 43.2867 31.3105 43.4003 31.446 43.5158C31.6911 43.729 31.9321 43.9422 32.1831 44.1494C32.3366 44.2769 32.4979 44.4024 32.6533 44.5299C32.8904 44.7211 33.1235 44.9164 33.3666 45.1057C33.5359 45.2391 33.7112 45.3666 33.8825 45.4981C34.1176 45.6774 34.3507 45.8587 34.5918 46.036C34.7671 46.1655 34.9504 46.291 35.1277 46.4205C35.3708 46.5939 35.6098 46.7692 35.8569 46.9405C36.0481 47.072 36.2434 47.1995 36.4366 47.331C36.6777 47.4924 36.9148 47.6577 37.1598 47.8171C37.367 47.9526 37.5802 48.0841 37.7894 48.2176C38.0264 48.369 38.2615 48.5204 38.5006 48.6678C38.7158 48.8013 38.9369 48.9288 39.1541 49.0603C39.3951 49.2057 39.6342 49.3512 39.8792 49.4946C40.1064 49.6261 40.3395 49.7536 40.5706 49.8851C40.8116 50.0226 41.0507 50.16 41.2938 50.2935C41.5328 50.423 41.7759 50.5505 42.0169 50.678C42.26 50.8075 42.5011 50.937 42.7461 51.0645C42.9951 51.194 43.2482 51.3175 43.4992 51.443C43.7422 51.5646 43.9833 51.6881 44.2284 51.8076C44.4913 51.9371 44.7603 52.0606 45.0272 52.1861C45.2663 52.2977 45.5034 52.4133 45.7445 52.5228C46.0214 52.6503 46.3023 52.7719 46.5812 52.8954C46.8183 52.999 47.0534 53.1066 47.2925 53.2102C47.5833 53.3337 47.8782 53.4552 48.173 53.5787C48.4061 53.6764 48.6372 53.774 48.8703 53.8696C49.1751 53.9931 49.4859 54.1127 49.7927 54.2322C50.0199 54.3199 50.247 54.4115 50.4781 54.4992C50.7988 54.6207 51.1236 54.7382 51.4483 54.8578C51.6694 54.9375 51.8906 55.0211 52.1137 55.1008C52.4504 55.2204 52.7931 55.3359 53.1338 55.4535C53.3469 55.5252 53.5601 55.6009 53.7753 55.6726C54.1299 55.7901 54.4885 55.9037 54.8451 56.0173C55.0523 56.083 55.2555 56.1507 55.4647 56.2145C55.8313 56.3281 56.2018 56.4376 56.5704 56.5452C56.7736 56.605 56.9768 56.6687 57.182 56.7265C57.5645 56.8381 57.949 56.9417 58.3336 57.0453C58.5288 57.0991 58.722 57.1548 58.9193 57.2066C59.3217 57.3142 59.7261 57.4158 60.1326 57.5174C60.3159 57.5633 60.4971 57.6111 60.6804 57.6569C61.0988 57.7585 61.5212 57.8581 61.9415 57.9537C62.1169 57.9936 62.2902 58.0354 62.4655 58.0753C62.9018 58.1729 63.3421 58.2665 63.7804 58.3602C63.9438 58.394 64.1051 58.4299 64.2685 58.4638C64.7247 58.5574 65.1829 58.647 65.6432 58.7347C65.7926 58.7626 65.942 58.7945 66.0934 58.8204C66.5656 58.908 67.0397 58.9917 67.5159 59.0734C67.6573 59.0973 67.7968 59.1232 67.9382 59.1471C68.4283 59.2288 68.9184 59.3045 69.4125 59.3802C69.542 59.4001 69.6695 59.42 69.799 59.44C70.307 59.5157 70.819 59.5854 71.3291 59.6531C71.4446 59.6691 71.5602 59.685 71.6757 59.699C72.1997 59.7687 72.7236 59.8285 73.2516 59.8902C73.3592 59.9022 73.4668 59.9161 73.5743 59.9281C74.1142 59.9878 74.6581 60.0436 75.202 60.0954C75.2957 60.1034 75.3893 60.1153 75.4829 60.1233C76.0388 60.1751 76.5966 60.2209 77.1564 60.2648C77.2401 60.2707 77.3238 60.2787 77.4094 60.2847C77.9852 60.3285 78.563 60.3664 79.1427 60.4002C79.2104 60.4042 79.2762 60.4102 79.3439 60.4142C79.9356 60.4481 80.5313 60.4759 81.125 60.5018C81.1808 60.5038 81.2366 60.5058 81.2943 60.5098C81.902 60.5337 82.5096 60.5536 83.1193 60.5656C83.1651 60.5676 83.2109 60.5696 83.2567 60.5696C83.8763 60.5835 84.4979 60.5915 85.1195 60.5955C85.1554 60.5955 85.1912 60.5975 85.2291 60.5975C85.8646 60.5995 86.5021 60.5975 87.1396 60.5895C87.1616 60.5875 87.1835 60.5875 87.2054 60.5875C87.8549 60.5795 88.5063 60.5656 89.1598 60.5457C89.1717 60.5457 89.1817 60.5437 89.1937 60.5437C89.8571 60.5238 90.5205 60.4979 91.1839 60.466C91.1859 60.466 91.1859 60.466 91.1879 60.466C92.3235 60.4102 93.4611 60.3385 94.6026 60.2488C95.1386 60.207 95.6765 60.1492 96.2124 60.0994C96.816 60.0436 97.4197 59.9958 98.0253 59.9301C98.6828 59.8583 99.3402 59.7687 99.9977 59.685C100.484 59.6233 100.968 59.5715 101.454 59.5037C102.175 59.4041 102.896 59.2846 103.618 59.169C104.04 59.1013 104.462 59.0435 104.885 58.9718C105.65 58.8423 106.415 58.6909 107.18 58.5434C107.556 58.4717 107.933 58.406 108.311 58.3303C109.102 58.1689 109.893 57.9896 110.684 57.8103C111.033 57.7326 111.383 57.6609 111.732 57.5772C112.545 57.3859 113.354 57.1748 114.165 56.9636C114.489 56.8779 114.814 56.8022 115.139 56.7146C115.966 56.4914 116.788 56.2484 117.611 56.0053C117.916 55.9137 118.223 55.832 118.528 55.7383C119.36 55.4833 120.191 55.2104 121.02 54.9335C121.313 54.8359 121.606 54.7462 121.897 54.6466C122.731 54.3617 123.56 54.0569 124.391 53.7501C124.674 53.6465 124.959 53.5469 125.242 53.4393C126.072 53.1225 126.897 52.7898 127.722 52.4511C127.999 52.3376 128.278 52.23 128.555 52.1144C129.376 51.7698 130.192 51.4052 131.005 51.0366C131.282 50.9131 131.559 50.7936 131.834 50.6661C132.641 50.2935 133.44 49.903 134.239 49.5066C134.518 49.3691 134.796 49.2376 135.073 49.0962C135.862 48.6957 136.643 48.2793 137.424 47.857C137.705 47.7036 137.988 47.5581 138.269 47.4027C139.036 46.9784 139.797 46.5341 140.556 46.0878C140.841 45.9185 141.13 45.7551 141.415 45.5838C142.16 45.1355 142.895 44.6693 143.628 44.1972C144.116 43.8844 144.61 43.5816 145.094 43.2588C145.616 42.9122 146.132 42.5595 146.65 42.2009C146.656 42.197 146.664 42.191 146.67 42.187C146.68 42.181 146.69 42.175 146.7 42.1671C143.853 43.4541 141.026 44.6415 138.223 45.7292C120.723 52.5189 104.193 55.4634 89.8192 55.571Z" fill="white"/>
<path d="M146.949 41.996C146.929 41.9681 146.901 41.9422 146.869 41.9203C146.838 41.9004 146.804 41.8904 146.782 41.8845C146.74 41.8745 146.65 41.8745 146.59 41.9024C143.783 43.1715 140.936 44.3668 138.129 45.4566C121.859 51.7701 105.153 55.1669 89.8171 55.2824C89.5441 55.2864 89.2652 55.2864 88.9943 55.2864C70.1614 55.2864 54.321 50.4273 45.5351 41.9562C45.4813 41.9044 45.4056 41.8745 45.3319 41.8745H0.356604C0.241052 41.8745 0.137454 41.9403 0.0896399 42.0438C0.0418256 42.1474 0.0617487 42.269 0.141439 42.3546C9.16439 51.9016 20.5561 59.3207 34.0019 64.401C45.2821 68.6664 58.0046 71.2145 70.797 71.7704C72.5701 71.8481 74.3731 71.8879 76.1561 71.8879C76.7339 71.8879 77.3196 71.8839 77.8934 71.876C85.8883 71.7604 93.8076 70.8121 101.428 69.0569C109.815 67.1264 117.605 64.2615 124.584 60.54C133.523 55.7745 141.044 49.6523 146.933 42.3427C146.935 42.3407 146.937 42.3387 146.937 42.3367C146.939 42.3347 146.941 42.3327 146.941 42.3307C146.963 42.2989 146.979 42.269 146.989 42.2251H146.991C147.003 42.1853 147.003 42.1415 146.993 42.0956C146.985 42.0598 146.969 42.0259 146.949 41.996ZM73.0143 54.3819C73.2076 54.4158 73.4028 54.4477 73.5981 54.4795C73.9109 54.5293 74.2256 54.5772 74.5404 54.625L74.5663 54.629C74.7874 54.6628 75.0086 54.6947 75.2317 54.7266C75.5545 54.7724 75.8812 54.8142 76.2059 54.8561C76.4331 54.886 76.6622 54.9158 76.8913 54.9437C77.228 54.9856 77.5667 55.0234 77.9213 55.0613C78.1404 55.0852 78.3576 55.1091 78.5787 55.133C78.9254 55.1689 79.274 55.2027 79.6247 55.2346L79.782 55.2485C79.9534 55.2645 80.1247 55.2804 80.296 55.2944C80.6527 55.3243 81.0153 55.3521 81.3759 55.38C81.597 55.396 81.8161 55.4119 82.0373 55.4279C82.4059 55.4538 82.7784 55.4757 83.151 55.4956C83.3701 55.5075 83.5892 55.5195 83.8084 55.5315C84.1869 55.5494 84.5695 55.5653 84.952 55.5813L85.1133 55.5872C85.2767 55.5932 85.4421 55.5992 85.6054 55.6052C85.9939 55.6171 86.3844 55.6271 86.7809 55.635C86.996 55.639 87.2112 55.643 87.4283 55.647C87.8268 55.653 88.2252 55.657 88.6257 55.657L88.9225 55.659C89.2194 55.661 89.5162 55.661 89.8171 55.659C105.197 55.5434 121.952 52.1366 138.265 45.8052C140.966 44.7573 143.7 43.6118 146.401 42.3965C140.582 49.5348 133.183 55.5275 124.401 60.2093C111.2 67.244 94.6822 71.2544 77.8874 71.4994C77.0746 71.5094 76.2557 71.5174 75.421 71.5034L74.9946 71.4974C74.6759 71.4954 74.3571 71.4934 74.0364 71.4875C72.8111 71.4655 71.7871 71.4357 70.8109 71.3938C54.2114 70.6706 23.0445 65.9171 0.563799 42.2471H45.292C45.5411 42.4881 45.806 42.7332 46.079 42.9782C46.1128 43.0081 46.1487 43.04 46.1846 43.0699C46.2184 43.0978 46.2503 43.1256 46.2822 43.1535C46.4973 43.3428 46.7105 43.5301 46.9337 43.7154C46.9894 43.7612 47.0472 43.807 47.103 43.8528L47.3062 44.0162C47.4795 44.1576 47.6509 44.2971 47.8302 44.4346C47.8959 44.4864 47.9637 44.5362 48.0314 44.586L48.2585 44.7573C48.4278 44.8848 48.5952 45.0123 48.7685 45.1378C48.8402 45.1896 48.916 45.2414 48.9897 45.2932L49.2008 45.4407C49.3801 45.5682 49.5614 45.6957 49.7447 45.8212C49.8224 45.875 49.9041 45.9268 49.9838 45.9786L50.191 46.114C50.3803 46.2396 50.5695 46.3651 50.7648 46.4866C50.8524 46.5424 50.9441 46.5982 51.0337 46.6519L51.2509 46.7854C51.4402 46.903 51.6294 47.0185 51.8227 47.1341C51.9143 47.1879 52.0079 47.2417 52.1016 47.2955L52.3865 47.4588C52.5638 47.5604 52.7411 47.662 52.9204 47.7636C53.02 47.8194 53.1236 47.8732 53.2252 47.929L53.534 48.0943C53.7073 48.188 53.8787 48.2816 54.056 48.3713C54.1556 48.4231 54.2572 48.4729 54.3588 48.5247L54.6855 48.688C54.8648 48.7777 55.0441 48.8693 55.2274 48.957C55.339 49.0108 55.4546 49.0646 55.5681 49.1184L55.855 49.2519C56.0482 49.3435 56.2415 49.4331 56.4367 49.5228C56.5463 49.5706 56.6559 49.6184 56.7655 49.6682L57.1659 49.8436C57.3372 49.9193 57.5086 49.993 57.6819 50.0667C57.8054 50.1185 57.9329 50.1703 58.0584 50.2221L58.423 50.3695C58.6023 50.4432 58.7816 50.5149 58.9649 50.5867C59.0984 50.6385 59.2319 50.6903 59.3674 50.7401L59.6642 50.8536C59.8694 50.9313 60.0726 51.009 60.2798 51.0847C60.4292 51.1385 60.5806 51.1923 60.7321 51.2461L60.9711 51.3298C61.1903 51.4075 61.4094 51.4852 61.6306 51.5609C61.784 51.6127 61.9394 51.6645 62.0968 51.7143L62.4115 51.8179C62.6108 51.8836 62.812 51.9494 63.0152 52.0131C63.1805 52.0649 63.3459 52.1147 63.5132 52.1665L63.8938 52.2821C64.0731 52.3359 64.2524 52.3917 64.4337 52.4434C64.6229 52.4972 64.8142 52.551 65.0054 52.6048L65.1768 52.6526C65.4119 52.7184 65.645 52.7841 65.884 52.8479C66.1072 52.9076 66.3323 52.9634 66.5574 53.0212L66.7885 53.081C66.9798 53.1308 67.171 53.1786 67.3663 53.2264C67.6253 53.2902 67.8843 53.3499 68.1612 53.4137L68.3006 53.4456C68.4919 53.4914 68.6832 53.5352 68.8764 53.579C69.1474 53.6388 69.4223 53.6966 69.7132 53.7583L69.8088 53.7783C70.012 53.8201 70.2132 53.8639 70.4184 53.9058C70.7073 53.9635 70.9982 54.0193 71.291 54.0751L71.4385 54.103C71.6217 54.1389 71.805 54.1727 71.9903 54.2066C72.2752 54.2584 72.5621 54.3062 72.849 54.356L73.0143 54.3819Z" fill="#CACAC7"/>
</svg>
