<svg width="180" height="140" viewBox="0 0 180 140" fill="none" xmlns="http://www.w3.org/2000/svg">
<ellipse cx="86.8675" cy="57.9655" rx="30.6092" ry="32.3751" fill="#013878"/>
<rect x="38.3801" y="29.1353" width="9.41504" height="61.4747" fill="#013878"/>
<rect x="62.1453" y="90.3413" width="116.55" height="47.0911" rx="8.49199" fill="#FD7900"/>
<path d="M68.8243 129.179V102.906H91.0091V129.179H85.0395V107.987H74.7425V129.179H68.8243ZM96.1721 139.031V102.906H102.261V107.251H102.621C102.94 106.612 103.39 105.934 103.972 105.216C104.553 104.486 105.34 103.864 106.332 103.351C107.324 102.827 108.59 102.564 110.13 102.564C112.159 102.564 113.989 103.083 115.62 104.121C117.262 105.147 118.562 106.669 119.52 108.688C120.489 110.695 120.974 113.158 120.974 116.077C120.974 118.962 120.501 121.414 119.554 123.432C118.608 125.45 117.319 126.99 115.689 128.05C114.058 129.111 112.211 129.641 110.147 129.641C108.641 129.641 107.393 129.39 106.401 128.888C105.409 128.387 104.61 127.782 104.006 127.075C103.413 126.357 102.951 125.678 102.621 125.04H102.364V139.031H96.1721ZM102.244 116.043C102.244 117.742 102.484 119.23 102.963 120.507C103.453 121.784 104.154 122.782 105.067 123.5C105.99 124.207 107.108 124.561 108.419 124.561C109.787 124.561 110.933 124.196 111.857 123.466C112.781 122.725 113.476 121.716 113.944 120.439C114.423 119.15 114.662 117.685 114.662 116.043C114.662 114.412 114.428 112.964 113.961 111.698C113.493 110.432 112.798 109.44 111.874 108.722C110.951 108.004 109.799 107.644 108.419 107.644C107.096 107.644 105.973 107.992 105.049 108.688C104.126 109.383 103.424 110.358 102.946 111.613C102.478 112.867 102.244 114.344 102.244 116.043ZM132.632 129.709C130.968 129.709 129.468 129.413 128.134 128.82C126.811 128.216 125.762 127.326 124.987 126.152C124.223 124.977 123.841 123.529 123.841 121.807C123.841 120.325 124.114 119.099 124.662 118.13C125.209 117.16 125.956 116.385 126.902 115.803C127.849 115.222 128.915 114.783 130.101 114.486C131.298 114.178 132.535 113.956 133.813 113.819C135.352 113.66 136.601 113.517 137.559 113.392C138.516 113.255 139.212 113.049 139.645 112.776C140.09 112.491 140.312 112.052 140.312 111.459V111.356C140.312 110.068 139.93 109.07 139.166 108.363C138.402 107.656 137.302 107.302 135.865 107.302C134.349 107.302 133.146 107.633 132.256 108.294C131.378 108.956 130.785 109.737 130.477 110.638L124.696 109.817C125.152 108.22 125.905 106.886 126.954 105.814C128.003 104.731 129.286 103.921 130.802 103.385C132.319 102.838 133.995 102.564 135.831 102.564C137.097 102.564 138.357 102.713 139.611 103.009C140.865 103.306 142.011 103.796 143.049 104.48C144.087 105.153 144.919 106.071 145.546 107.234C146.185 108.397 146.504 109.851 146.504 111.596V129.179H140.552V125.57H140.347C139.97 126.3 139.44 126.984 138.756 127.623C138.083 128.25 137.234 128.757 136.207 129.145C135.192 129.521 134.001 129.709 132.632 129.709ZM134.24 125.16C135.483 125.16 136.561 124.914 137.473 124.424C138.385 123.922 139.087 123.261 139.577 122.44C140.079 121.619 140.33 120.724 140.33 119.755V116.659C140.136 116.818 139.805 116.966 139.337 117.103C138.881 117.24 138.368 117.36 137.798 117.462C137.228 117.565 136.663 117.656 136.105 117.736C135.546 117.816 135.061 117.884 134.651 117.941C133.727 118.067 132.9 118.272 132.171 118.557C131.441 118.842 130.865 119.241 130.443 119.755C130.021 120.256 129.81 120.906 129.81 121.704C129.81 122.845 130.226 123.706 131.059 124.287C131.891 124.869 132.952 125.16 134.24 125.16ZM151.526 129.179V102.906H162.559C165.672 102.906 168.129 103.528 169.931 104.771C171.744 106.014 172.651 107.747 172.651 109.971C172.651 111.442 172.137 112.645 171.111 113.58C170.096 114.503 168.711 115.125 166.955 115.444C168.334 115.558 169.543 115.906 170.581 116.488C171.63 117.069 172.451 117.833 173.044 118.78C173.637 119.726 173.933 120.815 173.933 122.047C173.933 123.495 173.551 124.755 172.787 125.827C172.035 126.887 170.934 127.714 169.486 128.307C168.049 128.888 166.305 129.179 164.252 129.179H151.526ZM157.325 124.304H164.252C165.392 124.304 166.288 124.036 166.938 123.5C167.588 122.953 167.913 122.212 167.913 121.277C167.913 120.194 167.588 119.344 166.938 118.728C166.288 118.101 165.392 117.787 164.252 117.787H157.325V124.304ZM157.325 113.785H162.678C163.522 113.785 164.246 113.665 164.851 113.426C165.455 113.175 165.917 112.827 166.236 112.382C166.556 111.926 166.715 111.385 166.715 110.757C166.715 109.857 166.345 109.15 165.603 108.636C164.874 108.123 163.859 107.867 162.559 107.867H157.325V113.785Z" fill="white"/>
<path d="M119.624 100.879V61.0399H126.339V65.8312H126.735C127.087 65.127 127.584 64.3788 128.226 63.5865C128.867 62.7817 129.735 62.0963 130.829 61.5304C131.923 60.9519 133.319 60.6627 135.016 60.6627C137.255 60.6627 139.273 61.2349 141.072 62.3792C142.882 63.511 144.316 65.1899 145.372 67.4158C146.441 69.6291 146.976 72.3454 146.976 75.5648C146.976 78.7464 146.454 81.4502 145.41 83.676C144.366 85.9019 142.945 87.5996 141.147 88.7692C139.349 89.9387 137.311 90.5235 135.035 90.5235C133.375 90.5235 131.998 90.2468 130.904 89.6935C129.81 89.1402 128.93 88.4736 128.263 87.694C127.609 86.9017 127.1 86.1534 126.735 85.4492H126.452V100.879H119.624ZM126.32 75.527C126.32 77.4008 126.584 79.0419 127.113 80.4504C127.653 81.8589 128.427 82.9592 129.433 83.7515C130.451 84.5312 131.684 84.921 133.13 84.921C134.639 84.921 135.903 84.5186 136.922 83.7138C137.94 82.8964 138.707 81.7834 139.223 80.3749C139.751 78.9539 140.015 77.3379 140.015 75.527C140.015 73.7287 139.757 72.1316 139.242 70.7357C138.726 69.3398 137.959 68.2458 136.94 67.4535C135.922 66.6612 134.652 66.2651 133.13 66.2651C131.671 66.2651 130.433 66.6487 129.414 67.4158C128.395 68.1829 127.622 69.2581 127.094 70.6414C126.578 72.0247 126.32 73.6533 126.32 75.527ZM159.833 90.5989C157.997 90.5989 156.343 90.272 154.872 89.618C153.413 88.9515 152.256 87.9706 151.401 86.6753C150.559 85.38 150.137 83.7829 150.137 81.884C150.137 80.2492 150.439 78.8973 151.043 77.8284C151.646 76.7595 152.47 75.9043 153.514 75.263C154.558 74.6216 155.733 74.1374 157.041 73.8105C158.362 73.4709 159.726 73.2257 161.135 73.0748C162.832 72.8987 164.209 72.7415 165.266 72.6032C166.322 72.4523 167.089 72.2259 167.567 71.9241C168.058 71.6097 168.303 71.1256 168.303 70.4716V70.3585C168.303 68.9374 167.882 67.8371 167.039 67.0574C166.196 66.2777 164.983 65.8878 163.398 65.8878C161.726 65.8878 160.399 66.2525 159.418 66.9819C158.45 67.7113 157.796 68.5727 157.456 69.5662L151.08 68.6608C151.584 66.9002 152.414 65.4288 153.57 64.2467C154.727 63.052 156.142 62.1592 157.815 61.5681C159.487 60.9645 161.336 60.6627 163.361 60.6627C164.756 60.6627 166.146 60.8261 167.529 61.1531C168.913 61.4801 170.177 62.0208 171.321 62.7754C172.465 63.5173 173.383 64.5297 174.075 65.8124C174.779 67.0951 175.131 68.6985 175.131 70.6226V90.0142H168.567V86.034H168.341C167.926 86.8388 167.341 87.5934 166.586 88.2976C165.844 88.9892 164.907 89.5489 163.776 89.9764C162.656 90.3914 161.342 90.5989 159.833 90.5989ZM161.606 85.5813C162.977 85.5813 164.165 85.3109 165.171 84.7701C166.178 84.2168 166.951 83.4874 167.492 82.582C168.045 81.6765 168.322 80.6893 168.322 79.6204V76.2061C168.108 76.3822 167.743 76.5457 167.228 76.6966C166.725 76.8475 166.159 76.9795 165.53 77.0927C164.901 77.2059 164.279 77.3065 163.662 77.3945C163.046 77.4826 162.512 77.558 162.059 77.6209C161.04 77.7592 160.129 77.9856 159.324 78.3C158.519 78.6144 157.884 79.0545 157.419 79.6204C156.953 80.1737 156.721 80.8905 156.721 81.7708C156.721 83.0284 157.18 83.9779 158.098 84.6192C159.016 85.2606 160.185 85.5813 161.606 85.5813Z" fill="#013878"/>
<path d="M21.9988 76.4069C21.3934 75.0252 21.2089 73.5194 21.4143 71.8992C21.5248 71.0241 22.1301 70.2085 22.9979 69.7628C31.2929 65.4994 52.8708 62.3361 73.2197 58.4308C74.5682 58.1719 75.6597 58.2123 75.8204 59.4301L76.1753 62.1198C76.3353 63.33 74.8761 63.6922 73.5563 64.1006C53.5298 70.2939 33.0899 77.9659 23.9218 77.6381C23.0419 77.6069 22.3175 77.1363 21.9988 76.4069" fill="white"/>
<path d="M71.843 68.3678L70.3298 57.0836C70.3088 56.9247 70.4265 56.762 70.5934 56.7212L73.6251 55.9785C73.792 55.9377 73.945 56.0334 73.9663 56.1927L75.4792 67.4765C75.501 67.6356 75.383 67.7978 75.2164 67.8391L72.1842 68.582C72.0173 68.6229 71.8647 68.5269 71.843 68.3678" fill="white"/>
<path d="M96.7229 64.8007L95.2093 53.5168C95.188 53.3575 95.306 53.1952 95.4729 53.1544L98.505 52.4115C98.6719 52.3706 98.8245 52.4666 98.8459 52.6259L100.359 63.9094C100.381 64.0688 100.263 64.231 100.096 64.2719L97.0637 65.0152C96.8968 65.0561 96.7443 64.9601 96.7229 64.8007" fill="white"/>
<path d="M76.0978 78.4042L71.2311 42.9895L97.2792 36.8062L102.146 72.2207L76.0978 78.4042Z" fill="white"/>
<path d="M70.4061 44.5057L69.8094 40.1225L95.287 34.0633L95.884 38.4463L70.4061 44.5057" fill="white"/>
<path d="M69.968 42.0379L69.672 39.8625C69.5814 39.1971 70.0233 38.506 70.7167 38.2292C77.9015 35.3583 85.5438 33.4926 93.7076 32.7713C94.4225 32.7083 95.0148 33.1463 95.1045 33.8043L95.402 35.989L69.968 42.0379Z" fill="white"/>
<path d="M70.129 45.9411L69.8827 44.13C69.8606 43.968 69.9842 43.8033 70.1585 43.7619L96.7386 37.4405C96.9131 37.399 97.0723 37.4965 97.0942 37.6582L97.3405 39.4693C97.3627 39.6312 97.2391 39.7959 97.0646 39.8374L70.4847 46.1587C70.31 46.2003 70.1509 46.1027 70.129 45.9411Z" fill="white"/>
<path d="M77.9389 78.9753L78.5353 83.3581L104.013 77.2978L103.417 72.915L77.9389 78.9753" fill="white"/>
<path d="M78.4242 81.4085L78.72 83.5836C78.8101 84.2489 79.4067 84.6936 80.1296 84.6335C87.621 84.0128 95.2754 82.2404 103.118 79.1542C103.805 78.8845 104.244 78.2004 104.155 77.5432L103.858 75.3585L78.4242 81.4085" fill="white"/>
<path d="M76.9411 77.8642L77.1874 79.6753C77.2092 79.8367 77.3683 79.9344 77.5432 79.8925L104.123 73.5704C104.297 73.5292 104.421 73.3641 104.399 73.2024L104.152 71.3912C104.131 71.2291 103.971 71.1317 103.797 71.1732L77.217 77.4958C77.0426 77.5373 76.9187 77.702 76.9411 77.8642" fill="white"/>
<path d="M58.2245 69.6567C57.4265 66.4609 57.0826 63.0295 57.0053 61.6251C46.0324 62.842 28.1933 65.88 23.9294 67.4385C20.6495 68.6374 18.024 69.0778 18.6942 73.3978C19.3787 77.8092 23.5227 77.3805 23.9605 77.3792C30.5458 77.3585 47.7592 73.126 58.2245 69.6567Z" fill="#013878"/>
<rect x="119.608" y="90.4258" width="6.83052" height="11.0765" fill="white"/>
</svg>
