<svg width="104" height="77" viewBox="0 0 104 77" fill="none" xmlns="http://www.w3.org/2000/svg">
<ellipse cx="43.7302" cy="24.3679" rx="19.3828" ry="20.6829" fill="#013878"/>
<rect x="12.7649" y="5.69507" width="6.02758" height="39.3566" fill="#013878"/>
<rect x="27.6565" y="44.9341" width="74.6947" height="30.2561" rx="5.43664" fill="#FD7900"/>
<path d="M32.2563 69.7778V52.9578H46.4591V69.7778H42.6374V56.2101H36.0452V69.7778H32.2563ZM49.7646 76.0853V52.9578H53.663V55.7392H53.8929C54.0973 55.3304 54.3857 54.896 54.758 54.4361C55.1303 53.9689 55.6341 53.571 56.2692 53.2425C56.9043 52.9067 57.7147 52.7388 58.7002 52.7388C59.9997 52.7388 61.1714 53.071 62.2153 53.7353C63.2666 54.3923 64.0988 55.3669 64.7121 56.6591C65.3326 57.9439 65.6429 59.5208 65.6429 61.3897C65.6429 63.2367 65.3399 64.8063 64.734 66.0984C64.128 67.3906 63.3031 68.3762 62.2591 69.0551C61.2152 69.734 60.0325 70.0735 58.7112 70.0735C57.7475 70.0735 56.9481 69.9129 56.313 69.5917C55.6779 69.2705 55.1668 68.8835 54.7799 68.4309C54.4003 67.971 54.1046 67.5366 53.8929 67.1278H53.7287V76.0853H49.7646ZM53.652 61.3678C53.652 62.4556 53.8053 63.4083 54.1119 64.2259C54.4258 65.0435 54.8748 65.6823 55.4588 66.1423C56.0502 66.5949 56.7656 66.8212 57.6052 66.8212C58.4812 66.8212 59.2149 66.5876 59.8062 66.1204C60.3975 65.6458 60.8429 64.9997 61.1422 64.1821C61.4488 63.3572 61.6021 62.4191 61.6021 61.3678C61.6021 60.3239 61.4524 59.3967 61.1531 58.5864C60.8538 57.776 60.4085 57.1409 59.8172 56.681C59.2258 56.2211 58.4885 55.9911 57.6052 55.9911C56.7583 55.9911 56.0392 56.2138 55.4479 56.6591C54.8566 57.1044 54.4076 57.7286 54.101 58.5316C53.8017 59.3347 53.652 60.2801 53.652 61.3678ZM73.1067 70.1173C72.0409 70.1173 71.0809 69.9275 70.2268 69.5479C69.3799 69.161 68.7083 68.5915 68.2118 67.8396C67.7227 67.0876 67.4782 66.1605 67.4782 65.0581C67.4782 64.1091 67.6534 63.3243 68.0038 62.7038C68.3542 62.0832 68.8324 61.5868 69.4383 61.2145C70.0442 60.8422 70.7268 60.5611 71.4861 60.3713C72.2526 60.1742 73.0447 60.0318 73.8623 59.9442C74.8479 59.842 75.6473 59.7508 76.2605 59.6705C76.8737 59.5829 77.3191 59.4515 77.5965 59.2763C77.8812 59.0938 78.0235 58.8127 78.0235 58.4331V58.3674C78.0235 57.5424 77.779 56.9036 77.2899 56.451C76.8007 55.9984 76.0962 55.7721 75.1764 55.7721C74.2054 55.7721 73.4353 55.9838 72.8658 56.4072C72.3037 56.8306 71.9241 57.3307 71.727 57.9074L68.0257 57.3818C68.3177 56.3598 68.7995 55.5056 69.4712 54.8194C70.1428 54.1259 70.9641 53.6075 71.935 53.2644C72.906 52.914 73.9791 52.7388 75.1545 52.7388C75.9648 52.7388 76.7715 52.8337 77.5746 53.0235C78.3776 53.2133 79.1113 53.5272 79.7756 53.9652C80.44 54.396 80.9729 54.9836 81.3744 55.7283C81.7832 56.4729 81.9876 57.4037 81.9876 58.5207V69.7778H78.1768V67.4673H78.0454C77.8045 67.9345 77.4651 68.3725 77.027 68.7813C76.5963 69.1829 76.0524 69.5077 75.3954 69.7559C74.7457 69.9968 73.9828 70.1173 73.1067 70.1173ZM74.1361 67.2045C74.9318 67.2045 75.6217 67.0475 76.2057 66.7336C76.7898 66.4124 77.2387 65.9889 77.5527 65.4633C77.8739 64.9377 78.0345 64.3646 78.0345 63.7441V61.762C77.9104 61.8642 77.6987 61.9591 77.3994 62.0467C77.1073 62.1344 76.7788 62.211 76.4138 62.2767C76.0488 62.3424 75.6874 62.4008 75.3297 62.4519C74.972 62.503 74.6617 62.5468 74.3989 62.5833C73.8076 62.6636 73.2783 62.795 72.8111 62.9775C72.3439 63.1601 71.9752 63.4156 71.7051 63.7441C71.435 64.0653 71.2999 64.4814 71.2999 64.9924C71.2999 65.7225 71.5664 66.2737 72.0993 66.646C72.6322 67.0183 73.3112 67.2045 74.1361 67.2045ZM85.2027 69.7778V52.9578H92.2658C94.2588 52.9578 95.832 53.3557 96.9855 54.1514C98.1463 54.9471 98.7266 56.0568 98.7266 57.4804C98.7266 58.4221 98.3981 59.1923 97.7411 59.7909C97.0914 60.3823 96.2044 60.7801 95.0801 60.9845C95.9634 61.0575 96.7373 61.2802 97.4016 61.6525C98.0733 62.0248 98.5989 62.514 98.9785 63.1199C99.3581 63.7258 99.5479 64.423 99.5479 65.2115C99.5479 66.1386 99.3034 66.9453 98.8142 67.6315C98.3324 68.3105 97.6279 68.8397 96.7008 69.2194C95.7809 69.5917 94.664 69.7778 93.3499 69.7778H85.2027ZM88.9149 66.6569H93.3499C94.08 66.6569 94.653 66.4854 95.0692 66.1423C95.4853 65.7918 95.6933 65.3173 95.6933 64.7187C95.6933 64.0251 95.4853 63.4813 95.0692 63.087C94.653 62.6855 94.08 62.4848 93.3499 62.4848H88.9149V66.6569ZM88.9149 59.9223H92.3425C92.8827 59.9223 93.3463 59.8457 93.7332 59.6924C94.1201 59.5318 94.4158 59.3091 94.6202 59.0244C94.8246 58.7324 94.9268 58.3856 94.9268 57.9841C94.9268 57.4074 94.6895 56.9547 94.215 56.6262C93.7478 56.2977 93.0981 56.1335 92.2658 56.1335H88.9149V59.9223Z" fill="white"/>
<path d="M64.7769 52.0304V26.8209H69.0761V29.8883H69.3297C69.5551 29.4375 69.8731 28.9584 70.2837 28.4512C70.6943 27.9359 71.2499 27.4972 71.9503 27.1349C72.6507 26.7645 73.5444 26.5793 74.6313 26.5793C76.0644 26.5793 77.3566 26.9457 78.5079 27.6783C79.6672 28.4029 80.585 29.4777 81.2613 30.9027C81.9456 32.3197 82.2878 34.0587 82.2878 36.1198C82.2878 38.1567 81.9537 39.8877 81.2855 41.3127C80.6172 42.7377 79.7075 43.8246 78.5562 44.5734C77.4049 45.3221 76.1006 45.6965 74.6434 45.6965C73.5806 45.6965 72.6991 45.5193 71.9986 45.1651C71.2982 44.8109 70.7346 44.3842 70.3079 43.885C69.8892 43.3778 69.5632 42.8987 69.3297 42.4479H69.1486V52.0304H64.7769ZM69.064 36.0956C69.064 37.2952 69.2331 38.3459 69.5712 39.2476C69.9174 40.1493 70.4126 40.8538 71.0566 41.361C71.7088 41.8602 72.4978 42.1097 73.4236 42.1097C74.3898 42.1097 75.1989 41.8521 75.851 41.3368C76.5032 40.8135 76.9943 40.101 77.3244 39.1993C77.6625 38.2895 77.8316 37.255 77.8316 36.0956C77.8316 34.9443 77.6665 33.9219 77.3364 33.0282C77.0063 32.1345 76.5152 31.4341 75.8631 30.9269C75.211 30.4197 74.3978 30.1661 73.4236 30.1661C72.4897 30.1661 71.6967 30.4116 71.0446 30.9027C70.3924 31.3938 69.8973 32.0822 69.5592 32.9678C69.2291 33.8534 69.064 34.896 69.064 36.0956Z" fill="#013878"/>
<path d="M90.5192 45.7448C89.3437 45.7448 88.285 45.5354 87.343 45.1168C86.4091 44.6901 85.6684 44.0621 85.121 43.2329C84.5815 42.4036 84.3118 41.3811 84.3118 40.1654C84.3118 39.1188 84.5051 38.2533 84.8915 37.569C85.278 36.8846 85.8053 36.3372 86.4735 35.9266C87.1418 35.516 87.8945 35.206 88.7318 34.9967C89.5772 34.7793 90.4507 34.6223 91.3524 34.5257C92.4393 34.413 93.3209 34.3123 93.9972 34.2238C94.6735 34.1272 95.1646 33.9822 95.4705 33.789C95.7845 33.5877 95.9415 33.2778 95.9415 32.8591V32.7867C95.9415 31.8769 95.6718 31.1724 95.1324 30.6733C94.593 30.1741 93.816 29.9245 92.8016 29.9245C91.7308 29.9245 90.8815 30.158 90.2535 30.625C89.6335 31.0919 89.2149 31.6434 88.9975 32.2795L84.9157 31.6998C85.2377 30.5726 85.7691 29.6307 86.5098 28.8739C87.2504 28.109 88.1562 27.5374 89.227 27.159C90.2978 26.7726 91.4813 26.5793 92.7775 26.5793C93.6711 26.5793 94.5608 26.684 95.4464 26.8933C96.332 27.1027 97.1411 27.4489 97.8738 27.9319C98.6064 28.4069 99.1941 29.055 99.6369 29.8762C100.088 30.6974 100.313 31.7239 100.313 32.9557V45.3704H96.1106V42.8223H95.9657C95.7 43.3375 95.3256 43.8206 94.8426 44.2714C94.3675 44.7142 93.7677 45.0725 93.0431 45.3463C92.3266 45.6119 91.4853 45.7448 90.5192 45.7448ZM91.6544 42.5324C92.5319 42.5324 93.2927 42.3593 93.9368 42.0131C94.5809 41.6589 95.076 41.1919 95.4222 40.6123C95.7765 40.0326 95.9536 39.4006 95.9536 38.7162V36.5304C95.8167 36.6431 95.5832 36.7478 95.2532 36.8444C94.9311 36.941 94.5688 37.0255 94.1663 37.098C93.7637 37.1704 93.3652 37.2349 92.9707 37.2912C92.5762 37.3476 92.234 37.3959 91.9442 37.4361C91.2921 37.5247 90.7084 37.6696 90.1931 37.8709C89.6778 38.0722 89.2712 38.3539 88.9734 38.7162C88.6755 39.0705 88.5265 39.5294 88.5265 40.093C88.5265 40.8981 88.8204 41.5059 89.4081 41.9165C89.9958 42.3271 90.7446 42.5324 91.6544 42.5324Z" fill="#013878"/>
<path d="M2.48345 35.2392C2.02462 34.3118 1.83307 33.3169 1.88915 32.2597C1.91915 31.6887 2.27319 31.1732 2.81524 30.9092C7.99623 28.3842 21.8516 27.0215 34.8737 25.1308C35.7367 25.0054 36.4471 25.0681 36.6095 25.8732L36.9681 27.6512C37.1296 28.4512 36.1997 28.6408 35.3625 28.8652C22.6586 32.2691 9.75691 36.6303 3.7903 36.1114C3.21771 36.0618 2.72509 35.7287 2.48345 35.2392Z" fill="white"/>
<path d="M34.4841 30.783L33.0161 23.5034C32.9956 23.4008 33.0619 23.3005 33.1647 23.2798L35.0318 22.9035C35.1346 22.8828 35.235 22.9491 35.2557 23.0519L36.7234 30.3312C36.7444 30.4338 36.6779 30.5339 36.5753 30.5549L34.7079 30.9314C34.6051 30.9521 34.505 30.8856 34.4841 30.783Z" fill="white"/>
<path d="M50.4128 28.4996L48.9446 21.2202C48.9239 21.1174 48.9904 21.0174 49.0932 20.9967L50.9605 20.6202C51.0633 20.5995 51.1634 20.666 51.1841 20.7688L52.6521 28.0479C52.6729 28.1507 52.6063 28.2508 52.5035 28.2715L50.6364 28.6483C50.5336 28.669 50.4335 28.6024 50.4128 28.4996Z" fill="white"/>
<path d="M38.0061 37.0004L33.1906 14L49.3812 10.8547L54.1968 33.8549L38.0061 37.0004Z" fill="white"/>
<path d="M33.4438 15.2125L32.8383 12.3198L49.0289 9.17454L49.6345 12.0671L33.4438 15.2125Z" fill="white"/>
<path d="M33.1123 13.6271L32.8113 12.1896C32.7193 11.7498 32.9712 11.3106 33.407 11.1514C37.9224 9.50003 42.785 8.52336 48.0429 8.31479C48.5034 8.29661 48.9094 8.60331 49.0006 9.03815L49.3029 10.4818L33.1123 13.6271Z" fill="white"/>
<path d="M33.1717 16.0864L32.9208 14.8879C32.8983 14.7806 32.9703 14.6764 33.0815 14.6549L50.0327 11.3618C50.1439 11.3402 50.2523 11.4095 50.2746 11.5164L50.5255 12.7149C50.548 12.8221 50.476 12.9264 50.3647 12.948L33.4137 16.241C33.3023 16.2627 33.194 16.1933 33.1717 16.0864Z" fill="white"/>
<path d="M38.0431 37.1919L38.6486 40.0844L54.8394 36.9392L54.2338 34.0467L38.0431 37.1919Z" fill="white"/>
<path d="M38.3745 38.7702L38.6753 40.2076C38.7671 40.6472 39.1763 40.9586 39.6421 40.9425C44.4692 40.7784 49.3442 39.8636 54.2753 38.0925C54.7071 37.9377 54.958 37.5029 54.867 37.0686L54.5649 35.6248L38.3745 38.7702Z" fill="white"/>
<path d="M37.4431 36.4849L37.6941 37.6835C37.7163 37.7903 37.8246 37.8597 37.9361 37.8379L54.8873 34.545C54.9982 34.5236 55.0701 34.4191 55.0477 34.312L54.7967 33.1134C54.7745 33.0062 54.6659 32.937 54.5547 32.9586L37.6038 36.2517C37.4925 36.2734 37.4204 36.3776 37.4431 36.4849Z" fill="white"/>
<path d="M25.4702 31.6378C24.9578 29.5918 24.737 27.395 24.6873 26.4959C17.6419 27.275 6.18765 29.2201 3.44987 30.2178C1.3439 30.9854 -0.341916 31.2674 0.0884248 34.033C0.527875 36.8573 3.18869 36.5828 3.46981 36.5819C7.69807 36.5687 18.7505 33.8589 25.4702 31.6378Z" fill="#013878"/>
<rect x="64.7673" y="44.9341" width="4.37295" height="7.09127" fill="white"/>
</svg>
