<svg width="137" height="179" viewBox="0 0 137 179" fill="none" xmlns="http://www.w3.org/2000/svg">
<path d="M100.395 56.1289C117.158 37.0835 111.176 19.5789 106.09 13.2072C88.1639 11.3681 52.069 8.21997 51.0952 10.34C50.1214 12.46 50.0518 25.4726 50.1387 31.7139C46.9391 31.5402 43.6467 33.1475 42.4004 33.973C41.7744 37.3094 46.1681 41.6479 48.4433 43.4001C41.557 69.9872 53.6022 76.4312 60.4855 76.3298V86.7996L53.6601 94.3587C44.9364 94.3587 25.8717 96.4005 19.4028 104.568C12.9339 112.735 3.05925 165.264 1.13191 178.152H131.516C136.524 171.445 135.898 127.65 134.521 117.905C133.061 102.022 108.901 95.5896 97.0035 94.3587L92.6996 86.7996C92.6417 75.6927 92.5605 53.6005 92.6996 54.0871C92.8735 54.6953 96.1775 56.8674 97.0035 57.3018C97.6643 57.6494 99.5395 56.6647 100.395 56.1289Z" fill="white"/>
<path d="M66.7254 112.512L73.9265 106.429L68.2551 98.4321L60.6415 105.807L63.4366 112.512L49.3415 177.538H58.2684H68.3699L66.7254 112.512Z" fill="#FD7900" stroke="#013878" stroke-width="0.787962" stroke-linecap="round"/>
<path d="M90.9733 24.2622L90.9734 40.9296C92.3829 39.3646 95.7657 36.5632 98.0209 35.9998C100.276 35.4364 105.068 38.895 107.183 40.6948L108.592 42.8077L111.411 32.7134C113.525 20.5063 106.478 14.2462 99.4303 8.53392C80.4021 -4.37736 55.9705 2.66514 52.9166 5.24741C49.8626 7.82967 50.0976 42.3381 50.3325 34.5913C50.5204 28.3939 56.2054 18.7065 59.0244 14.6375C69.9246 21.7739 84.8654 24.0275 90.9733 24.2622Z" fill="#013878" stroke="#013878" stroke-width="0.262654"/>
<path d="M81.1065 36.2335C77.8177 34.1207 69.5486 30.8812 62.7829 34.825H59.2592C56.2835 32.947 48.8288 30.177 42.8149 34.1208C43.2848 36.9378 45.352 42.6187 49.8625 42.8065C54.3729 42.9943 58.0063 37.5637 59.2592 34.825H62.7829C63.4877 38.268 66.1658 45.0601 71.24 44.6845C76.3142 44.3089 79.9319 38.894 81.1065 36.2335Z" fill="#013878"/>
<path d="M91.208 41.1632L81.1065 36.2335M81.1065 36.2335C77.8177 34.1207 69.5486 30.8812 62.7829 34.825M81.1065 36.2335C79.9319 38.894 76.3142 44.3089 71.24 44.6845C66.1658 45.0601 63.4877 38.268 62.7829 34.825M62.7829 34.825H59.2592M59.2592 34.825C56.2835 32.947 48.8288 30.177 42.8149 34.1208C43.2848 36.9378 45.352 42.6187 49.8625 42.8065C54.3729 42.9943 58.0063 37.5637 59.2592 34.825Z" stroke="#013878" stroke-width="0.787962"/>
<path d="M60.6685 35.0601L53.9094 53.4786L60.6685 55.0139" stroke="#013878" stroke-width="0.787962" stroke-linecap="round"/>
<path d="M68.4214 61.0112C67.9321 62.4348 65.6036 65.0922 60.2034 64.3331" stroke="#013878" stroke-width="0.787962" stroke-linecap="round"/>
<path d="M48.6875 42.8081C46.5733 50.4766 43.9892 67.4783 52.6812 73.7952C57.8493 77.5513 73.119 79.1945 82.0459 66.518" stroke="#013878" stroke-width="0.787962"/>
<path d="M108.357 42.3398C106.556 48.5999 99.2893 60.4157 94.9669 55.7207C90.6444 51.0256 91.678 52.1994 90.2685 49.6171" stroke="#013878" stroke-width="0.787962" stroke-linecap="round"/>
<path d="M98.4898 42.8081L96.3755 45.3904M94.2612 47.9726L96.3755 45.3904M96.3755 45.3904L99.4294 47.9726" stroke="#013878" stroke-width="0.787962" stroke-linecap="round"/>
<path d="M92.6182 53.3711V86.0015L67.7169 98.6781L60.6693 87.8795V76.8462" stroke="#013878" stroke-width="0.787962" stroke-linecap="round"/>
<path d="M61.3731 84.3572C71.7095 83.9816 79.5401 72.1501 82.0459 66.5161C73.5889 77.5964 65.3108 76.8452 61.3731 76.8452V84.3572Z" fill="#013878" stroke="#013878" stroke-width="0.787962" stroke-linecap="round"/>
<path d="M97.3164 94.4528L92.4935 85.9326L80.2962 91.9105L68.0988 98.3542L60.5628 87.0971L53.3868 94.4528L58.555 108.303L68.0988 98.3542L76.1738 109.712L97.3164 94.4528Z" fill="white"/>
<path d="M68.0988 98.3542L76.1738 109.712L97.3164 94.4528L92.4935 85.9326L80.2962 91.9105L68.0988 98.3542ZM68.0988 98.3542L58.555 108.303L53.3868 94.4528L60.5628 87.0971L68.0988 98.3542Z" stroke="#013878" stroke-width="0.787962" stroke-linecap="round"/>
<path d="M98.0211 94.2178C106.165 95.235 124.332 99.617 131.849 109.007C139.367 118.397 134.982 158.774 131.849 177.789H0.999973C4.21052 154.94 12.7929 107.927 21.4378 102.669C32.2441 96.0958 40.936 94.2178 52.9168 94.2178" stroke="#013878" stroke-width="0.787962" stroke-linecap="round"/>
<path d="M107.652 126.379C109.061 136.004 111.035 159.714 107.652 177.555" stroke="#013878" stroke-width="0.787962" stroke-linecap="round"/>
<path d="M28.4847 126.658C25.6487 135.964 20.1445 159.111 20.8155 177.257" stroke="#013878" stroke-width="0.787962" stroke-linecap="round"/>
</svg>
