<svg width="203" height="234" viewBox="0 0 203 234" fill="none" xmlns="http://www.w3.org/2000/svg">
<path d="M53.9488 83.1555C28.9671 54.7733 37.8817 28.6872 45.4617 19.192C72.1754 16.4513 125.965 11.7598 127.417 14.9191C128.868 18.0784 128.971 37.4703 128.842 46.7714C133.61 46.5124 138.517 48.9078 140.374 50.1379C141.307 55.11 134.759 61.5754 131.369 64.1866C141.631 103.808 123.681 113.411 113.423 113.26V128.862L123.594 140.127C136.595 140.127 165.006 143.17 174.646 155.341C184.286 167.512 199.002 245.794 201.874 265H7.57085C0.107451 255.004 1.03987 189.74 3.09144 175.216C5.26827 151.547 41.2722 141.961 59.0021 140.127L65.416 128.862C65.5024 112.31 65.6233 79.3876 65.416 80.1127C65.1568 81.0191 60.2331 84.2561 59.0021 84.9035C58.0174 85.4214 55.2229 83.954 53.9488 83.1555Z" fill="white"/>
<path d="M104.124 167.179L93.3923 158.114L101.844 146.197L113.19 157.188L109.025 167.179L130.03 264.084H116.727H101.673L104.124 167.179Z" fill="#FD7900" stroke="#013878" stroke-width="1.17425" stroke-linecap="round"/>
<path d="M67.9885 35.6663L67.9883 60.5047C65.8878 58.1724 60.8466 53.9977 57.4858 53.1581C54.125 52.3184 46.9833 57.4727 43.8325 60.1548L41.7321 63.3035L37.5311 48.2606C34.3805 30.0691 44.883 20.74 55.3855 12.2273C83.7421 -7.01356 120.151 3.48146 124.702 7.32965C129.253 11.1778 128.903 62.6037 128.553 51.0591C128.273 41.8234 119.801 27.3869 115.6 21.3231C99.356 31.9581 77.0907 35.3165 67.9885 35.6663Z" fill="#013878" stroke="#013878" stroke-width="0.391418"/>
<path d="M82.6925 53.5063C87.5937 50.3578 99.9167 45.5301 109.999 51.4073H115.25C119.685 48.6087 130.794 44.4807 139.756 50.3579C139.056 54.5559 135.975 63.0218 129.254 63.3017C122.532 63.5816 117.117 55.4887 115.25 51.4073H109.999C108.949 56.5382 104.958 66.6601 97.3961 66.1004C89.8342 65.5406 84.4429 57.4711 82.6925 53.5063Z" fill="#013878"/>
<path d="M67.6389 60.8528L82.6925 53.5063M82.6925 53.5063C87.5937 50.3578 99.9167 45.5301 109.999 51.4073M82.6925 53.5063C84.4429 57.4711 89.8342 65.5406 97.3961 66.1004C104.958 66.6601 108.949 56.5382 109.999 51.4073M109.999 51.4073H115.25M115.25 51.4073C119.685 48.6087 130.794 44.4807 139.756 50.3579C139.056 54.5559 135.975 63.0218 129.254 63.3017C122.532 63.5816 117.117 55.4887 115.25 51.4073Z" stroke="#013878" stroke-width="1.17425"/>
<path d="M113.15 51.7578L123.223 79.2059L113.15 81.4938" stroke="#013878" stroke-width="1.17425" stroke-linecap="round"/>
<path d="M101.596 90.4316C102.325 92.5531 105.795 96.5132 113.843 95.382" stroke="#013878" stroke-width="1.17425" stroke-linecap="round"/>
<path d="M131.005 63.3047C134.155 74.7326 138.006 100.069 125.053 109.483C117.351 115.08 94.5958 117.529 81.2926 98.6381" stroke="#013878" stroke-width="1.17425"/>
<path d="M42.0823 62.6064C44.7663 71.9354 55.5955 89.5438 62.0371 82.5471C68.4786 75.5504 66.9382 77.2995 69.0387 73.4513" stroke="#013878" stroke-width="1.17425" stroke-linecap="round"/>
<path d="M56.7869 63.3047L59.9377 67.1529M63.0884 71.0011L59.9377 67.1529M59.9377 67.1529L55.3866 71.0011" stroke="#013878" stroke-width="1.17425" stroke-linecap="round"/>
<path d="M65.5372 79.0459V127.673L102.646 146.564L113.149 130.472V114.029" stroke="#013878" stroke-width="1.17425" stroke-linecap="round"/>
<path d="M112.1 125.223C96.6963 124.663 85.0268 107.031 81.2926 98.6353C93.8956 115.147 106.232 114.028 112.1 114.028V125.223Z" fill="#013878" stroke="#013878" stroke-width="1.17425" stroke-linecap="round"/>
<path d="M58.5359 140.267L65.7231 127.57L83.9001 136.479L102.077 146.082L113.308 129.306L124.002 140.267L116.3 160.908L102.077 146.082L90.0434 163.007L58.5359 140.267Z" fill="white"/>
<path d="M102.077 146.082L90.0434 163.007L58.5359 140.267L65.7231 127.57L83.9001 136.479L102.077 146.082ZM102.077 146.082L116.3 160.908L124.002 140.267L113.308 129.306L102.077 146.082Z" stroke="#013878" stroke-width="1.17425" stroke-linecap="round"/>
<path d="M57.4856 139.917C45.3494 141.433 18.2762 147.964 7.07352 161.957C-4.12917 175.951 2.40574 236.122 7.07352 264.459H202.07C197.286 230.408 184.496 160.348 171.613 152.512C155.509 142.716 142.556 139.917 124.702 139.917" stroke="#013878" stroke-width="1.17425" stroke-linecap="round"/>
<path d="M43.1339 187.845C41.0334 202.188 38.0926 237.521 43.1339 264.109" stroke="#013878" stroke-width="1.17425" stroke-linecap="round"/>
<path d="M161.112 188.261C165.338 202.128 173.541 236.623 172.541 263.665" stroke="#013878" stroke-width="1.17425" stroke-linecap="round"/>
</svg>
