<svg width="421" height="466" viewBox="0 0 421 466" fill="none" xmlns="http://www.w3.org/2000/svg">
<path d="M103.991 229.232L105.207 246.108L73.5715 243.32L73.5715 229.232L51.4245 209.594L41.6192 168.451L45.6108 160.789L42.8122 128.902C51.8389 127.295 55.119 138.415 55.6307 144.177L61.6591 135.226C68.6005 140.415 66.9325 148.051 65.2309 151.22C72.1723 156.41 68.4676 165.335 65.7477 169.149L88.5396 189.804C87.9962 184.443 86.6528 172.686 85.6261 168.544C84.5994 164.402 89.2805 160.05 91.7494 158.392L103.991 184.015C113.373 205.243 108.866 226.716 103.991 229.232Z" stroke="#013878" stroke-width="2.09933"/>
<path d="M87.8485 210.78C84.5262 207.939 75.8803 201.428 66.0485 202.047L62.1944 190.286C65.645 185.654 70.266 176.904 63.5216 172.84L52.6733 187.695L54.9578 202.284" stroke="#013878" stroke-width="2.09933"/>
<path d="M63.5217 172.84L66.3047 168.226" stroke="#013878" stroke-width="2.09933"/>
<path d="M49.0872 177.986L65.2305 151.221" stroke="#013878" stroke-width="2.09933"/>
<path d="M45.6119 160.79L61.3818 135.687" stroke="#013878" stroke-width="2.09933"/>
<path d="M323.517 293.749L342.41 277.785L327.531 256.8L307.555 276.155L314.889 293.749L277.5 464.399H301.329H327.832L323.517 293.749Z" fill="#FD7900" stroke="#013878" stroke-width="2.11597" stroke-linecap="round"/>
<path d="M279.091 462.077H326.715L326.815 465.459L278.3 465.459L279.091 462.077Z" fill="#FD7900"/>
<path d="M387.138 62.1544L387.138 105.895C390.836 101.788 399.712 94.4361 405.628 92.9576C411.545 91.479 424.119 100.556 429.666 105.279L433.364 110.824L440.76 84.3331C446.307 52.2977 427.817 35.869 409.326 20.8781C359.403 -13.0053 295.303 5.47652 287.29 12.2532C279.278 19.0299 279.894 109.591 280.511 89.2613C281.004 72.9972 295.919 47.5742 303.315 36.8958C331.914 55.6241 371.113 61.5384 387.138 62.1544Z" fill="#013878" stroke="#013878" stroke-width="0.705322"/>
<path d="M361.252 93.5742C352.623 88.0297 330.928 79.528 313.177 89.8778H303.932C296.125 84.9494 276.566 77.68 260.788 88.0299C262.02 95.4226 267.444 110.331 279.278 110.824C291.112 111.317 300.645 97.0652 303.932 89.8778H313.177C315.026 98.9134 322.052 116.738 335.365 115.753C348.678 114.767 358.17 100.556 361.252 93.5742Z" fill="#013878"/>
<path d="M387.754 106.512L361.252 93.5742M361.252 93.5742C352.623 88.0297 330.928 79.528 313.177 89.8778M361.252 93.5742C358.17 100.556 348.678 114.767 335.365 115.753C322.052 116.738 315.026 98.9134 313.177 89.8778M313.177 89.8778H303.932M303.932 89.8778C296.125 84.9494 276.566 77.68 260.788 88.0299C262.02 95.4226 267.444 110.331 279.278 110.824C291.112 111.317 300.645 97.0652 303.932 89.8778Z" stroke="#013878" stroke-width="2.11597"/>
<path d="M307.63 90.4933L289.897 138.83L307.63 142.859" stroke="#013878" stroke-width="2.11597" stroke-linecap="round"/>
<path d="M306.409 167.316C320.577 169.308 326.686 162.334 327.97 158.598L304.903 163.288L306.409 167.316Z" stroke="#013878" stroke-width="2.11597" stroke-linecap="round"/>
<path d="M276.197 110.824C270.65 130.948 263.87 175.566 286.675 192.144C300.234 202.001 340.297 206.314 363.718 173.046" stroke="#013878" stroke-width="2.11597"/>
<path d="M432.748 109.592C428.023 126.021 408.957 157.029 397.617 144.708C386.276 132.387 388.988 135.467 385.29 128.69" stroke="#013878" stroke-width="2.11597" stroke-linecap="round"/>
<path d="M406.862 110.824L401.315 117.6M395.768 124.377L401.315 117.6M401.315 117.6L409.327 124.377" stroke="#013878" stroke-width="2.11597" stroke-linecap="round"/>
<path d="M391.453 138.547V224.18L326.12 257.447L307.63 229.108V200.153" stroke="#013878" stroke-width="2.11597" stroke-linecap="round"/>
<path d="M307.629 219.821C335.648 218.837 356.874 187.824 363.667 173.055C340.742 202.099 318.303 200.13 307.629 200.13V219.821Z" fill="#013878" stroke="#013878" stroke-width="2.11597" stroke-linecap="round"/>
<path d="M403.78 246.357L391.126 223.998L359.124 239.686L327.123 256.596L307.351 227.054L288.523 246.357L302.083 282.705L327.123 256.596L348.309 286.402L403.78 246.357Z" fill="white"/>
<path d="M327.123 256.596L348.309 286.402L403.78 246.357L391.126 223.998L359.124 239.686L327.123 256.596ZM327.123 256.596L302.083 282.705L288.523 246.357L307.351 227.054L327.123 256.596Z" stroke="#013878" stroke-width="2.11597" stroke-linecap="round"/>
<path d="M287.267 247.537C251.896 247.537 225.457 241.255 193.554 259.805C170.534 279.14 133.478 321.943 113.725 354.026C119.369 301.846 110.074 243.612 106.671 227.455L72.809 241.557C67.8708 290.212 54.8419 400.047 87.2708 421.367C111.954 437.595 167.029 366.669 205.063 326.228" stroke="#013878" stroke-width="2.11597" stroke-linecap="round"/>
<path d="M205.805 325.857C202.107 351.115 192.402 411.883 192.402 459.832" stroke="#013878" stroke-width="2.11597" stroke-linecap="round"/>
<path d="M69.6339 268.705L110.55 253.544L108.434 238.384L106.317 226.749L72.8085 241.91L71.7503 251.782L71.0449 258.833L69.6339 268.705Z" fill="white" stroke="#013878" stroke-width="1.83575" stroke-linecap="round"/>
<path d="M403.314 246.141C427.064 251.547 489.26 276.619 495.75 302.85C502.24 329.081 526.395 411.194 537.33 455.735" stroke="#013878" stroke-width="2.11655"/>
</svg>
