<svg width="146" height="162" viewBox="0 0 146 162" fill="none" xmlns="http://www.w3.org/2000/svg">
<g opacity="0.6" filter="url(#filter0_f_410_812)">
<circle cx="71.1564" cy="90.929" r="46.5633" fill="#013878"/>
</g>
<circle cx="71.1563" cy="90.1192" r="46.9682" fill="white" stroke="#013878" stroke-width="0.809797"/>
<mask id="mask0_410_812" style="mask-type:alpha" maskUnits="userSpaceOnUse" x="23" y="41" width="96" height="96">
<circle cx="71.1563" cy="89.3094" r="47.3731" fill="#D9D9D9"/>
</mask>
<g mask="url(#mask0_410_812)">
<path d="M87.0515 83.2634C96.9026 72.0635 93.3872 61.7696 90.3982 58.0226C79.8642 56.9411 58.6531 55.0898 58.0808 56.3365C57.5085 57.5832 57.4677 65.2355 57.5188 68.9058C55.6385 68.8036 53.7037 69.7489 52.9713 70.2343C52.6035 72.1963 55.1854 74.7476 56.5224 75.7781C52.4757 91.413 59.554 95.2026 63.599 95.1429V101.3L59.5881 105.745C54.4616 105.745 43.2582 106.946 39.4568 111.749C35.6553 116.552 32.4398 132.91 31.3072 140.49L105.854 141.716C108.797 137.771 107.915 125.323 107.106 119.592C106.248 110.252 92.0503 106.469 85.0588 105.745L82.5296 101.3C82.4956 94.7683 82.4479 81.7766 82.5296 82.0627C82.6318 82.4204 84.5734 83.6977 85.0588 83.9532C85.4471 84.1576 86.5491 83.5785 87.0515 83.2634Z" fill="white"/>
<path d="M67.265 116.42L71.4967 112.843L68.1639 108.141L63.6898 112.478L65.3323 116.42L57.0494 154.66H62.2952H68.2313L67.265 116.42Z" fill="#FD7900" stroke="#013878" stroke-width="0.463496" stroke-linecap="round"/>
<path d="M81.515 64.5237L81.5151 74.3253C82.3434 73.4049 84.3313 71.7575 85.6565 71.4262C86.9818 71.0949 89.798 73.1288 91.0405 74.1872L91.8687 75.4297L93.5253 69.4936C94.7677 62.315 90.6263 58.6336 86.4848 55.2744C75.3029 47.6817 60.9457 51.8232 59.151 53.3418C57.3564 54.8603 57.4944 75.1535 57.6325 70.5979C57.7429 66.9534 61.0837 61.2566 62.7403 58.8637C69.1458 63.0604 77.9257 64.3857 81.515 64.5237Z" fill="#013878" stroke="#013878" stroke-width="0.154499"/>
<path d="M75.717 71.5644C73.7843 70.3219 68.9249 68.4169 64.9491 70.7361H62.8784C61.1298 69.6317 56.749 68.0028 53.2149 70.322C53.491 71.9786 54.7059 75.3193 57.3564 75.4298C60.007 75.5402 62.1421 72.3467 62.8784 70.7361H64.9491C65.3633 72.7608 66.937 76.755 69.9189 76.5341C72.9008 76.3133 75.0267 73.1289 75.717 71.5644Z" fill="#013878"/>
<path d="M81.6531 74.4634L75.717 71.5644M75.717 71.5644C73.7843 70.3219 68.9249 68.4169 64.9491 70.7361M75.717 71.5644C75.0267 73.1289 72.9008 76.3133 69.9189 76.5341C66.937 76.755 65.3633 72.7608 64.9491 70.7361M64.9491 70.7361H62.8784M62.8784 70.7361C61.1298 69.6317 56.749 68.0028 53.2149 70.322C53.491 71.9786 54.7059 75.3193 57.3564 75.4298C60.007 75.5402 62.1421 72.3467 62.8784 70.7361Z" stroke="#013878" stroke-width="0.463496"/>
<path d="M63.7067 70.8743L59.7347 81.7056L63.7067 82.6085" stroke="#013878" stroke-width="0.463496" stroke-linecap="round"/>
<path d="M68.2623 86.135C67.9748 86.9722 66.6065 88.5349 63.4331 88.0885" stroke="#013878" stroke-width="0.463496" stroke-linecap="round"/>
<path d="M56.6662 75.4297C55.4237 79.9393 53.9052 89.9374 59.013 93.6522C62.0501 95.861 71.0233 96.8273 76.2692 89.3727" stroke="#013878" stroke-width="0.463496"/>
<path d="M91.7306 75.1538C90.6722 78.8351 86.4019 85.7836 83.8618 83.0226C81.3217 80.2616 81.9291 80.9519 81.1008 79.4333" stroke="#013878" stroke-width="0.463496" stroke-linecap="round"/>
<path d="M85.9327 75.4297L84.6902 76.9482M83.4478 78.4668L84.6902 76.9482M84.6902 76.9482L86.4849 78.4668" stroke="#013878" stroke-width="0.463496" stroke-linecap="round"/>
<path d="M82.4813 81.6421V100.831L67.8481 108.286L63.7066 101.935V95.447" stroke="#013878" stroke-width="0.463496" stroke-linecap="round"/>
<path d="M64.1208 99.8645C70.195 99.6437 74.7966 92.686 76.2692 89.3728C71.2994 95.8887 66.4348 95.447 64.1208 95.447V99.8645Z" fill="#013878" stroke="#013878" stroke-width="0.463496" stroke-linecap="round"/>
<path d="M85.2423 105.801L82.4082 100.79L75.2404 104.306L68.0726 108.095L63.6441 101.475L59.4271 105.801L62.4642 113.946L68.0726 108.095L72.8179 114.774L85.2423 105.801Z" fill="white"/>
<path d="M68.0726 108.095L72.8179 114.774L85.2423 105.801L82.4082 100.79L75.2404 104.306L68.0726 108.095ZM68.0726 108.095L62.4642 113.946L59.4271 105.801L63.6441 101.475L68.0726 108.095Z" stroke="#013878" stroke-width="0.463496" stroke-linecap="round"/>
<path d="M85.6565 105.662C90.4422 106.261 101.118 108.837 105.536 114.359C109.953 119.881 107.376 143.626 105.536 154.808H28.6421C30.5288 141.371 35.5722 113.724 40.6524 110.632C47.0027 106.767 52.1105 105.662 59.151 105.662" stroke="#013878" stroke-width="0.463496" stroke-linecap="round"/>
<path d="M91.3166 124.575C92.1449 130.235 93.3045 144.178 91.3166 154.67" stroke="#013878" stroke-width="0.463496" stroke-linecap="round"/>
<path d="M44.7939 124.74C43.1273 130.212 39.8928 143.824 40.2871 154.495" stroke="#013878" stroke-width="0.463496" stroke-linecap="round"/>
</g>
<path d="M23.0771 67.4711C22.6004 68.4999 21.9652 69.2787 21.1715 69.8074C20.3798 70.3316 19.4937 70.6083 18.513 70.6375C17.53 70.6602 16.5174 70.43 15.4752 69.9471C14.4285 69.4622 13.5981 68.8329 12.984 68.0594C12.3654 67.2838 12.0024 66.4255 11.8949 65.4847C11.7851 64.5374 11.9634 63.5605 12.4297 62.5541C12.8173 61.7176 13.3146 61.0488 13.9217 60.5477C14.5263 60.0401 15.1973 59.7235 15.9347 59.5978C16.6676 59.4702 17.4177 59.5515 18.1851 59.8419L17.1095 62.1633C16.5694 62.0272 16.0521 62.0592 15.5573 62.2592C15.0602 62.4526 14.6759 62.8423 14.4044 63.4283C14.1744 63.9248 14.1065 64.4231 14.2008 64.9231C14.2906 65.4211 14.535 65.8903 14.9341 66.3306C15.3353 66.7664 15.8825 67.1449 16.5758 67.4661C17.2781 67.7915 17.9296 67.9684 18.5304 67.9969C19.1267 68.0232 19.6473 67.914 20.0921 67.6691C20.5346 67.4178 20.8729 67.0394 21.1071 66.5339C21.2729 66.1761 21.354 65.8252 21.3504 65.4812C21.3444 65.1307 21.2562 64.7992 21.0859 64.4866C20.9156 64.1741 20.6614 63.896 20.3233 63.6524L21.3989 61.331C22.1011 61.7269 22.6479 62.2411 23.0395 62.8735C23.4266 63.5038 23.6308 64.2124 23.652 64.9991C23.6687 65.7838 23.4771 66.6078 23.0771 67.4711Z" fill="#013878"/>
<path d="M25.4709 62.2137L16.3239 55.4802L22.0096 47.7564L31.1567 54.4899L29.6267 56.5682L22.2484 51.1367L19.6093 54.7217L26.9877 60.1532L25.4709 62.2137Z" fill="#013878"/>
<path d="M36.2166 56.0935L24.7572 45.4827L26.5457 43.5511L27.9239 44.8272L28.0294 44.7132C27.9206 44.4244 27.8377 44.0822 27.7806 43.6867C27.72 43.2879 27.7539 42.8558 27.8825 42.3903C28.0075 41.9216 28.2961 41.443 28.7483 40.9547C29.3445 40.3108 30.0466 39.8827 30.8548 39.6702C31.6626 39.4507 32.5274 39.4855 33.4489 39.7745C34.3703 40.0565 35.2939 40.6263 36.22 41.4837C37.1351 42.3311 37.7738 43.2013 38.1361 44.0944C38.4983 44.9874 38.6082 45.8484 38.4656 46.6771C38.3231 47.5059 37.9487 48.2476 37.3424 48.9023C36.9003 49.3798 36.454 49.7022 36.0034 49.8695C35.5529 50.0369 35.1267 50.1125 34.7249 50.0966C34.3229 50.0737 33.972 50.0209 33.6723 49.9382L33.5969 50.0196L38.0353 54.1293L36.2166 56.0935ZM30.7078 47.415C31.2467 47.914 31.7891 48.2751 32.3349 48.4983C32.8841 48.7179 33.4066 48.7885 33.9024 48.7102C34.398 48.6248 34.8384 48.3742 35.2235 47.9582C35.6255 47.5241 35.8463 47.0534 35.8861 46.5461C35.9223 46.0354 35.8065 45.5183 35.5387 44.9949C35.2706 44.4644 34.8761 43.9581 34.3552 43.4758C33.838 42.9968 33.3099 42.6456 32.7711 42.4221C32.2322 42.1987 31.7132 42.1279 31.2141 42.2099C30.7149 42.2919 30.2626 42.5517 29.8574 42.9894C29.4688 43.409 29.2493 43.8675 29.1986 44.3648C29.148 44.8621 29.2512 45.3709 29.5085 45.8913C29.769 46.408 30.1688 46.9159 30.7078 47.415Z" fill="#013878"/>
<path d="M44.7268 44.056C43.7686 44.6147 42.8152 44.888 41.8667 44.8761C40.9182 44.8641 40.0292 44.592 39.1997 44.0599C38.3744 43.5253 37.6663 42.7511 37.0754 41.7375C36.4845 40.7239 36.1585 39.7242 36.0974 38.7384C36.0405 37.7501 36.2405 36.8403 36.6974 36.009C37.1543 35.1777 37.8619 34.4828 38.8202 33.9241C39.7784 33.3655 40.7318 33.0922 41.6803 33.1041C42.6288 33.1161 43.517 33.3915 44.3447 33.9304C45.1767 34.4668 45.8881 35.2418 46.4791 36.2554C47.07 37.269 47.3926 38.2679 47.447 39.2519C47.5057 40.2334 47.3065 41.1398 46.8496 41.9711C46.3927 42.8024 45.6851 43.4974 44.7268 44.056ZM43.6596 42.196C44.1792 41.8931 44.5304 41.4971 44.7133 41.0082C44.8937 40.515 44.9275 39.976 44.8148 39.3912C44.7064 38.8039 44.4784 38.2121 44.1308 37.6158C43.7807 37.0153 43.3769 36.5232 42.9192 36.1395C42.4633 35.749 41.9763 35.5108 41.4583 35.4248C40.9402 35.3388 40.4214 35.4472 39.9018 35.7501C39.3695 36.0605 39.0109 36.4635 38.8263 36.9592C38.6459 37.4524 38.6112 37.9948 38.7221 38.5863C38.8348 39.1712 39.0661 39.7638 39.4162 40.3643C39.7638 40.9606 40.1643 41.4518 40.6177 41.838C41.0754 42.2217 41.5632 42.4566 42.0813 42.5426C42.6011 42.6219 43.1272 42.5063 43.6596 42.196Z" fill="#013878"/>
<path d="M54.9509 39.5043C53.8774 39.8693 52.8754 39.947 51.945 39.7374C51.0193 39.5262 50.2075 39.0759 49.5097 38.3863C48.8149 37.6905 48.2827 36.7988 47.9129 35.7113C47.5416 34.6191 47.424 33.5839 47.56 32.6056C47.6944 31.6227 48.065 30.7677 48.6718 30.0407C49.2817 29.3075 50.1117 28.7624 51.1618 28.4053C52.0347 28.1086 52.8619 28.007 53.6434 28.1006C54.4281 28.1879 55.1203 28.455 55.7201 28.9019C56.3182 29.3442 56.777 29.9433 57.0965 30.699L54.6741 31.5226C54.3999 31.0378 54.0198 30.6854 53.5336 30.4654C53.0506 30.2391 52.5033 30.2299 51.8919 30.4378C51.3738 30.6139 50.9663 30.9086 50.6695 31.322C50.371 31.7306 50.2002 32.2313 50.157 32.824C50.1184 33.415 50.2221 34.0723 50.4681 34.7957C50.7172 35.5285 51.0388 36.1221 51.4328 36.5766C51.8252 37.0263 52.2635 37.3277 52.7477 37.4807C53.235 37.6274 53.7423 37.6112 54.2697 37.4319C54.6431 37.3049 54.953 37.1214 55.1995 36.8815C55.449 36.6352 55.6281 36.3426 55.7367 36.0037C55.8454 35.6647 55.8712 35.2889 55.8142 34.8761L58.2366 34.0525C58.4346 34.8339 58.4398 35.5845 58.2524 36.3043C58.0633 37.0195 57.6914 37.6562 57.1366 38.2145C56.5803 38.7681 55.8517 39.1981 54.9509 39.5043Z" fill="#013878"/>
<path d="M62.4709 33.7314L66.0506 25.5038L68.7813 25.1714L70.1538 36.4463L67.5846 36.7591L66.6491 29.0736L63.0849 37.3068L60.3469 37.6401L58.9744 26.3652L61.5362 26.0533L62.4709 33.7314Z" fill="#013878"/>
<path d="M71.4794 27.3676L71.6531 25.1782L81.5604 25.9642L81.3867 28.1535L77.7231 27.8629L76.9985 36.9962L74.4185 36.7915L75.143 27.6582L71.4794 27.3676Z" fill="#013878"/>
<path d="M85.3402 30.6724L88.563 31.5856C89.9575 31.9808 90.9404 32.6257 91.5119 33.5203C92.0833 34.4149 92.2155 35.4131 91.9085 36.5148C91.7008 37.2297 91.3452 37.8155 90.8417 38.2724C90.343 38.7305 89.7213 39.0258 88.9767 39.1581C88.2382 39.287 87.4041 39.2197 86.4745 38.9563L81.5086 37.5492L84.6051 26.6212L87.088 27.3248L84.5903 36.1397L87.0733 36.8433C87.6329 37.0019 88.1333 36.99 88.5744 36.8075C89.0169 36.6203 89.302 36.3015 89.4296 35.8509C89.564 35.3766 89.4933 34.9389 89.2175 34.538C88.9417 34.137 88.524 33.8573 87.9643 33.6987L84.7414 32.7854L85.3402 30.6724Z" fill="#013878"/>
<path d="M107.261 31.5293L98.0861 43.5779L95.9035 41.9158L105.078 29.8672L107.261 31.5293ZM105.813 38.8381L104.478 40.5913L100.683 37.7017L102.018 35.9485L105.813 38.8381ZM115.669 47.4497C114.681 48.7479 113.591 49.6747 112.4 50.23C111.216 50.7843 110.019 50.9885 108.81 50.8426C107.605 50.6997 106.476 50.2266 105.42 49.4232C104.365 48.6198 103.607 47.6549 103.145 46.5285C102.69 45.4011 102.57 44.1914 102.785 42.8994C103.008 41.6064 103.612 40.3128 104.597 39.0185C105.586 37.7203 106.672 36.794 107.857 36.2397C109.048 35.6844 110.246 35.4782 111.451 35.6211C112.659 35.767 113.791 36.2417 114.846 37.0451C115.901 37.8485 116.658 38.8119 117.116 39.9353C117.578 41.0617 117.698 42.2714 117.476 43.5644C117.26 44.8564 116.658 46.1515 115.669 47.4497ZM113.475 45.7787C114.171 44.8649 114.615 43.9852 114.806 43.1396C115.005 42.2931 114.975 41.5179 114.718 40.814C114.464 40.1062 114.009 39.5029 113.354 39.0042C112.699 38.5054 111.997 38.2276 111.247 38.1709C110.5 38.1102 109.743 38.2866 108.976 38.7C108.216 39.1125 107.488 39.7757 106.792 40.6895C106.096 41.6034 105.649 42.4835 105.45 43.33C105.259 44.1756 105.29 44.9523 105.544 45.6601C105.801 46.364 106.257 46.9653 106.912 47.4641C107.567 47.9629 108.268 48.2426 109.015 48.3033C109.765 48.36 110.52 48.1821 111.28 47.7696C112.048 47.3562 112.779 46.6926 113.475 45.7787Z" fill="#013878"/>
<path d="M107.744 57.2186L120.304 47.9375L121.869 50.0547L120.358 51.1709L120.45 51.2958C120.755 51.2428 121.106 51.2251 121.505 51.2427C121.909 51.2574 122.327 51.3713 122.76 51.5844C123.197 51.7946 123.614 52.1673 124.009 52.7026C124.531 53.4083 124.82 54.178 124.879 55.0115C124.944 55.8461 124.748 56.6892 124.293 57.5408C123.844 58.3934 123.112 59.1948 122.097 59.9447C121.094 60.6859 120.12 61.1513 119.175 61.3407C118.23 61.5302 117.364 61.4777 116.576 61.1832C115.788 60.8887 115.129 60.3826 114.599 59.6649C114.212 59.1416 113.979 58.643 113.898 58.1691C113.818 57.6953 113.823 57.2625 113.914 56.8707C114.011 56.48 114.128 56.1451 114.265 55.8661L114.199 55.7768L109.335 59.3715L107.744 57.2186ZM117.297 53.4237C116.706 53.8602 116.25 54.3258 115.929 54.8205C115.611 55.3191 115.444 55.8193 115.429 56.321C115.42 56.8238 115.585 57.3032 115.922 57.7591C116.273 58.2349 116.694 58.5396 117.186 58.6733C117.681 58.804 118.21 58.7866 118.774 58.621C119.345 58.4565 119.916 58.1633 120.487 57.7414C121.054 57.3225 121.498 56.8691 121.818 56.3814C122.138 55.8936 122.304 55.3969 122.316 54.8912C122.329 54.3855 122.158 53.8927 121.803 53.413C121.464 52.9531 121.054 52.6519 120.575 52.5095C120.096 52.367 119.577 52.3737 119.017 52.5294C118.461 52.6891 117.888 52.9872 117.297 53.4237Z" fill="#013878"/>
<path d="M114.108 66.4821C113.955 66.1508 113.841 65.8318 113.765 65.525C113.686 65.2247 113.642 64.9763 113.633 64.7797L115.786 64.4704C115.846 64.8716 115.943 65.2099 116.075 65.4854C116.208 65.7608 116.408 65.9646 116.675 66.0965C116.939 66.235 117.301 66.2883 117.758 66.2564L118.412 66.2075L127.216 57.6114L128.405 60.1899L121.712 66.1594L121.761 66.2668L130.65 65.0583L131.842 67.6435L118.375 68.8466C117.74 68.906 117.154 68.8666 116.618 68.7284C116.078 68.5922 115.598 68.3411 115.18 67.975C114.759 67.6154 114.401 67.1178 114.108 66.4821Z" fill="#013878"/>
<defs>
<filter id="filter0_f_410_812" x="0.299238" y="20.0718" width="141.714" height="141.715" filterUnits="userSpaceOnUse" color-interpolation-filters="sRGB">
<feFlood flood-opacity="0" result="BackgroundImageFix"/>
<feBlend mode="normal" in="SourceGraphic" in2="BackgroundImageFix" result="shape"/>
<feGaussianBlur stdDeviation="12.147" result="effect1_foregroundBlur_410_812"/>
</filter>
</defs>
</svg>
