<svg width="56" height="55" viewBox="0 0 56 55" fill="none" xmlns="http://www.w3.org/2000/svg">
<path d="M27.5464 0C42.7348 0 55.0464 12.3116 55.0464 27.5C55.0464 42.6884 42.7348 55 27.5464 55C12.358 55 0.0463867 42.6884 0.0463867 27.5C0.0463867 12.3116 12.358 0 27.5464 0ZM37.0327 38.7092C37.5384 37.1573 39.9082 21.6903 40.2012 18.6426C40.2896 17.7196 39.9979 17.1062 39.4264 16.8324C38.7353 16.5 37.7118 16.6662 36.5245 17.0942C34.8961 17.6813 14.0774 26.5208 12.8745 27.0325C11.7339 27.5167 10.6554 28.0452 10.6554 28.8104C10.6554 29.3485 10.9746 29.651 11.8546 29.9654C12.7705 30.2918 15.0769 30.9913 16.4388 31.3667C17.7504 31.729 19.2438 31.4146 20.0807 30.8945C20.9679 30.3433 31.2063 23.4922 31.9416 22.892C32.6757 22.2917 33.2616 23.0605 32.6614 23.662C32.0612 24.2622 25.0331 31.0834 24.1065 32.0279C22.9814 33.1746 23.7801 34.363 24.5345 34.8389C25.3966 35.3817 31.5961 39.5402 32.5299 40.2074C33.4637 40.8746 34.4106 41.1771 35.2775 41.1771C36.1443 41.1771 36.6011 40.0352 37.0327 38.7092Z" fill="#FD7900"/>
</svg>
