<svg width="56" height="55" viewBox="0 0 56 55" fill="none" xmlns="http://www.w3.org/2000/svg">
<path d="M27.5464 0C12.3831 0 0.0463867 12.3367 0.0463867 27.5C0.0463867 42.6633 12.3831 55 27.5464 55C42.7108 55 55.0464 42.6633 55.0464 27.5C55.0464 12.3367 42.7108 0 27.5464 0ZM39.4706 32.9223C42.1453 35.2968 42.7013 36.1446 42.7921 36.2892C43.9005 38.0469 41.563 38.2609 41.563 38.2609H36.6369C36.6369 38.2609 35.4377 38.274 34.413 37.5949C32.7427 36.5009 30.9935 34.3798 29.7643 34.748C28.7325 35.0565 28.742 36.4507 28.742 37.6427C28.742 38.0696 28.375 38.2609 27.5464 38.2609C26.7178 38.2609 26.3735 38.2609 26.0064 38.2609C23.3078 38.2609 20.3796 37.3522 17.4587 34.2997C13.3265 29.9846 9.70247 21.2922 9.70247 21.2922C9.70247 21.2922 9.48845 20.8546 9.7216 20.5879C9.98584 20.289 10.7044 20.3273 10.7044 20.3273L15.4811 20.3261C15.4811 20.3261 15.9306 20.411 16.2535 20.6382C16.5201 20.8247 16.6683 21.181 16.6683 21.181C16.6683 21.181 17.4706 23.8305 18.4929 25.52C20.4896 28.8176 21.4187 28.9013 22.0966 28.5462C23.0866 28.0321 22.7638 24.5264 22.7638 24.5264C22.7638 24.5264 22.808 23.0211 22.2915 22.3503C21.8933 21.8314 21.1317 21.5552 20.7993 21.5122C20.5303 21.4775 20.9799 21.0064 21.5526 20.7374C22.3178 20.3966 23.3592 20.3093 25.1551 20.3261C26.5528 20.3392 26.9557 20.4229 27.501 20.5485C29.1498 20.9287 28.742 21.9318 28.742 25.4542C28.742 26.5829 28.5866 28.1696 29.4379 28.6957C29.805 28.9228 31.0628 29.2002 33.3011 25.5654C34.364 23.8413 35.2093 20.9813 35.2093 20.9813C35.2093 20.9813 35.3839 20.6668 35.6553 20.5114C35.9327 20.3524 35.9243 20.356 36.3045 20.356C36.6848 20.356 40.4977 20.3261 41.3346 20.3261C42.1704 20.3261 42.9548 20.3165 43.0899 20.8067C43.2836 21.511 42.4729 23.9238 40.4188 26.5423C37.0435 30.8395 36.6692 30.4377 39.4706 32.9223Z" fill="#FD7900"/>
</svg>
