<svg width="1397" height="256" viewBox="0 0 1397 256" fill="none" xmlns="http://www.w3.org/2000/svg">
<path fill-rule="evenodd" clip-rule="evenodd" d="M192.329 0C187.49 8.43861 182.562 17.286 177.465 26.4364L177.463 26.4397C175.889 29.2662 174.298 32.1215 172.689 35.0027C158.846 59.7929 143.498 86.7534 124.883 114.575C95.5497 158.416 66.1305 177.387 42.0241 183.975C25.2597 188.556 10.734 187.254 0 183.836V199.425C12.77 202.642 28.5465 203.208 45.9785 198.444C74.4006 190.677 106.548 168.953 137.35 122.916C156.319 94.5645 171.911 67.1616 185.786 42.3162C187.4 39.4256 188.989 36.5731 190.556 33.7601L190.565 33.7447C197.254 21.7376 203.542 10.4507 209.663 0H192.329ZM459.025 0C474.996 17.8118 490.553 40.0352 505.742 67.9077C511.279 78.0677 516.766 88.4551 522.25 98.838L522.251 98.8391L522.254 98.8439C531.466 116.284 540.672 133.712 550.095 150.029C565.201 176.184 581.372 200.422 600.215 219.017C619.144 237.696 641.031 250.933 667.46 254.525C693.837 258.11 723.742 251.953 758.496 233.741C829.477 196.544 851.261 120.032 868.903 54.3438C869.391 52.5285 869.875 50.7221 870.356 48.9252L870.362 48.9029C875.024 31.5089 879.447 15.0054 884.418 0H868.649C864.137 14.1543 860.113 29.1826 856.042 44.3901C855.501 46.4085 854.96 48.43 854.417 50.4531C836.488 117.209 815.855 186.747 751.534 220.454C718.635 237.694 691.896 242.709 669.48 239.662C647.117 236.622 628.064 225.424 610.751 208.34C593.352 191.17 577.979 168.317 563.085 142.527C553.769 126.396 544.836 109.481 535.746 92.2675L535.744 92.2644L535.744 92.2634L535.743 92.2624C530.231 81.8253 524.662 71.2785 518.913 60.7301C505.928 36.9009 492.564 16.8676 478.765 0H459.025ZM1296.27 0H1281.24C1279.3 53.6747 1279.25 90.0504 1291.59 121.66C1306.04 158.662 1337 188.295 1397 232.727V214.006C1343.08 173.377 1317.63 147.116 1305.56 116.204C1294.38 87.5595 1294.32 54.279 1296.27 0Z" fill="#F6FAFF"/>
</svg>
