<svg width="57" height="56" viewBox="0 0 57 56" fill="none" xmlns="http://www.w3.org/2000/svg">
<path fill-rule="evenodd" clip-rule="evenodd" d="M28.0463 56C43.5102 56 56.0463 43.464 56.0463 28C56.0463 12.536 43.5102 0 28.0463 0C12.5823 0 0.0462646 12.536 0.0462646 28C0.0462646 43.464 12.5823 56 28.0463 56ZM26.9856 11.4506L17.4397 20.9966C16.8539 21.5824 16.8539 22.5321 17.4397 23.1179C18.0254 23.7037 18.9752 23.7037 19.561 23.1179L26.5463 16.1326L26.5463 46.4688H29.5463L29.5463 16.1326L36.5315 23.1179C37.1173 23.7037 38.0671 23.7037 38.6529 23.1179C39.2387 22.5321 39.2387 21.5824 38.6529 20.9966L29.1069 11.4506C28.5211 10.8649 27.5714 10.8649 26.9856 11.4506Z" fill="#013878"/>
</svg>
