<svg width="743" height="540" viewBox="0 0 743 540" fill="none" xmlns="http://www.w3.org/2000/svg">
<path d="M625.205 259.837L623.826 278.985L659.72 275.822L659.72 259.837L684.849 237.555L695.974 190.873L691.445 182.18L694.62 146C684.378 144.176 680.657 156.794 680.076 163.331L673.236 153.175C665.36 159.063 667.253 167.727 669.184 171.323C661.308 177.211 665.511 187.338 668.597 191.665L642.737 215.101C643.353 209.019 644.878 195.679 646.043 190.979C647.208 186.279 641.896 181.341 639.095 179.46L625.205 208.533C614.561 232.618 619.674 256.983 625.205 259.837Z" stroke="#013878" stroke-width="2.38195"/>
<path d="M643.521 238.901C647.291 235.677 657.101 228.29 668.256 228.992L672.629 215.648C668.714 210.393 663.471 200.464 671.123 195.853L683.432 212.708L680.84 229.262" stroke="#013878" stroke-width="2.38195"/>
<path d="M671.122 195.854L667.965 190.618" stroke="#013878" stroke-width="2.38195"/>
<path d="M687.5 201.692L669.183 171.324" stroke="#013878" stroke-width="2.38195"/>
<path d="M691.444 182.181L673.551 153.699" stroke="#013878" stroke-width="2.38195"/>
<path d="M376.125 333.04L354.689 314.926L371.572 291.116L394.236 313.077L385.916 333.04L427.875 526.663H401.301H371.23L376.125 333.04Z" fill="#FD7900" stroke="#013878" stroke-width="2.40082" stroke-linecap="round"/>
<path d="M303.939 70.2668L303.939 119.896C299.743 115.236 289.673 106.894 282.96 105.217C276.246 103.539 261.98 113.838 255.686 119.197L251.49 125.488L243.099 95.4312C236.805 59.0832 257.785 40.4428 278.764 23.4338C335.408 -15.0112 408.138 5.95879 417.229 13.6478C426.32 21.3368 425.62 124.09 424.921 101.023C424.362 82.5693 407.438 53.7238 399.046 41.6078C366.598 62.8574 322.122 69.5678 303.939 70.2668Z" fill="#013878" stroke="#013878" stroke-width="0.800275"/>
<path d="M333.311 105.917C343.102 99.6257 367.717 89.9795 387.858 101.723H398.348C407.206 96.1308 429.397 87.8828 447.3 99.626C445.901 108.014 439.747 124.929 426.32 125.489C412.893 126.048 402.077 109.878 398.348 101.723H387.858C385.76 111.975 377.788 132.199 362.682 131.081C347.577 129.962 336.808 113.839 333.311 105.917Z" fill="#013878"/>
<path d="M303.24 120.596L333.311 105.917M333.311 105.917C343.102 99.6257 367.717 89.9795 387.858 101.723M333.311 105.917C336.808 113.839 347.577 129.962 362.682 131.081C377.788 132.199 385.76 111.975 387.858 101.723M387.858 101.723H398.348M398.348 101.723C407.206 96.1308 429.397 87.8828 447.3 99.626C445.901 108.014 439.747 124.929 426.32 125.489C412.893 126.048 402.077 109.878 398.348 101.723Z" stroke="#013878" stroke-width="2.40082"/>
<path d="M394.151 102.421L414.271 157.264L394.151 161.836" stroke="#013878" stroke-width="2.40082" stroke-linecap="round"/>
<path d="M395.537 189.585C379.462 191.846 372.53 183.933 371.073 179.694L397.246 185.015L395.537 189.585Z" stroke="#013878" stroke-width="2.40082" stroke-linecap="round"/>
<path d="M429.816 125.488C436.11 148.322 443.802 198.947 417.928 217.756C402.543 228.94 357.087 233.833 330.513 196.087" stroke="#013878" stroke-width="2.40082"/>
<path d="M252.19 124.091C257.551 142.731 279.183 177.914 292.051 163.934C304.918 149.954 301.841 153.449 306.037 145.76" stroke="#013878" stroke-width="2.40082" stroke-linecap="round"/>
<path d="M281.561 125.488L287.855 133.177M294.149 140.866L287.855 133.177M287.855 133.177L278.764 140.866" stroke="#013878" stroke-width="2.40082" stroke-linecap="round"/>
<path d="M299.044 156.943V254.105L373.171 291.851L394.151 259.697V226.843" stroke="#013878" stroke-width="2.40082" stroke-linecap="round"/>
<path d="M394.153 249.159C362.362 248.042 338.279 212.854 330.572 196.098C356.582 229.052 382.042 226.817 394.153 226.817V249.159Z" fill="#013878" stroke="#013878" stroke-width="2.40082" stroke-linecap="round"/>
<path d="M285.058 279.268L299.415 253.898L335.725 271.698L372.034 290.885L394.468 257.365L415.83 279.268L400.445 320.509L372.034 290.885L347.996 324.703L285.058 279.268Z" fill="white"/>
<path d="M372.034 290.885L347.996 324.703L285.058 279.268L299.415 253.898L335.725 271.698L372.034 290.885ZM372.034 290.885L400.445 320.509L415.83 279.268L394.468 257.365L372.034 290.885Z" stroke="#013878" stroke-width="2.40082" stroke-linecap="round"/>
<path d="M417.257 280.606C457.389 280.606 487.387 273.479 523.585 294.525C549.705 316.464 591.749 365.029 614.161 401.431C607.757 342.227 618.304 276.153 622.165 257.82L660.585 273.822C666.188 329.026 680.971 453.647 644.177 477.837C616.17 496.25 553.681 415.776 510.527 369.891" stroke="#013878" stroke-width="2.40082" stroke-linecap="round"/>
<path d="M238.001 384.628C233.805 413.287 229.449 471.188 239.52 524.312" stroke="#013878" stroke-width="2.40082" stroke-linecap="round"/>
<path d="M509.684 369.47C513.88 398.129 524.892 467.077 524.892 521.481" stroke="#013878" stroke-width="2.40082" stroke-linecap="round"/>
<path d="M664.187 304.624L617.763 287.422L620.164 270.221L622.565 257.02L660.585 274.221L661.786 285.422L662.586 293.423L664.187 304.624Z" fill="white" stroke="#013878" stroke-width="2.08288" stroke-linecap="round"/>
<path d="M285.586 279.022C258.639 285.156 188.07 313.603 180.706 343.365C173.342 373.127 145.935 466.295 133.529 516.832" stroke="#013878" stroke-width="2.40148"/>
<path d="M238.414 382.943C225.341 429.08 201.937 514.676 197.134 526.517" stroke="#013878" stroke-width="2.40148"/>
<rect y="510.388" width="719.356" height="29.4063" fill="white"/>
</svg>
