<svg width="130" height="132" viewBox="0 0 130 132" fill="none" xmlns="http://www.w3.org/2000/svg">
<circle cx="65" cy="66.1113" r="63.9143" fill="white" stroke="#013878" stroke-width="2.17133"/>
<mask id="mask0_524_599" style="mask-type:alpha" maskUnits="userSpaceOnUse" x="0" y="0" width="130" height="130">
<circle cx="65" cy="65" r="65" fill="#D9D9D9"/>
</mask>
<g mask="url(#mask0_524_599)">
<path d="M86.8096 56.7046C100.326 41.3373 95.5028 27.2132 91.4016 22.0721C76.948 20.5882 47.8445 18.048 47.0593 19.7586C46.2741 21.4692 46.218 31.9688 46.2881 37.0048C43.7082 36.8645 41.0535 38.1615 40.0486 38.8275C39.5439 41.5196 43.0866 45.0203 44.921 46.4341C39.3686 67.8866 49.0807 73.0862 54.6308 73.0044V81.4522L49.1274 87.5514C42.0934 87.5514 26.7214 89.199 21.5055 95.7889C16.2896 102.379 11.8776 124.825 10.3235 135.224L112.609 136.906C116.647 131.494 115.436 114.414 114.326 106.55C113.149 93.7348 93.6683 88.5446 84.0754 87.5514L80.6052 81.4522C80.5584 72.4903 80.493 54.6646 80.6052 55.0571C80.7454 55.5479 83.4094 57.3005 84.0754 57.6511C84.6082 57.9315 86.1202 57.137 86.8096 56.7046Z" fill="white"/>
<path d="M59.6608 102.198L65.467 97.29L60.8942 90.8379L54.7552 96.7889L57.009 102.198L45.644 154.666H52.8418H60.9867L59.6608 102.198Z" fill="#FD7900" stroke="#013878" stroke-width="0.669371" stroke-linecap="round"/>
<path d="M79.2129 30.992L79.213 44.4405C80.3495 43.1777 83.077 40.9173 84.8954 40.4627C86.7138 40.0081 90.5779 42.7988 92.2826 44.251L93.4191 45.9559L95.6921 37.811C97.3968 27.9614 91.7143 22.9102 86.0318 18.3011C70.6893 7.88329 50.99 13.5657 48.5276 15.6493C46.0652 17.7329 46.2546 45.577 46.444 39.3263C46.5955 34.3257 51.1794 26.5091 53.4524 23.2259C62.2412 28.9842 74.2881 30.8026 79.2129 30.992Z" fill="#013878" stroke="#013878" stroke-width="0.223124"/>
<path d="M71.257 40.6525C68.6052 38.9478 61.9377 36.3338 56.4826 39.516H53.6413C51.2421 38.0007 45.2313 35.7657 40.3823 38.9479C40.7611 41.2208 42.4279 45.8046 46.0647 45.9561C49.7015 46.1077 52.6311 41.7259 53.6413 39.516H56.4826C57.0508 42.2941 59.2102 47.7745 63.3015 47.4715C67.3929 47.1684 70.3099 42.7992 71.257 40.6525Z" fill="#013878"/>
<path d="M79.4019 44.6302L71.257 40.6525M71.257 40.6525C68.6052 38.9478 61.9377 36.3338 56.4826 39.516M71.257 40.6525C70.3099 42.7992 67.3929 47.1684 63.3015 47.4715C59.2102 47.7745 57.0508 42.2941 56.4826 39.516M56.4826 39.516H53.6413M53.6413 39.516C51.2421 38.0007 45.2313 35.7657 40.3823 38.9479C40.7611 41.2208 42.4279 45.8046 46.0647 45.9561C49.7015 46.1077 52.6311 41.7259 53.6413 39.516Z" stroke="#013878" stroke-width="0.669371"/>
<path d="M54.7783 39.7056L49.3285 54.5671L54.7783 55.8059" stroke="#013878" stroke-width="0.669371" stroke-linecap="round"/>
<path d="M61.0291 60.6443C60.6346 61.7929 58.7571 63.9371 54.4029 63.3246" stroke="#013878" stroke-width="0.669371" stroke-linecap="round"/>
<path d="M45.1181 45.9556C43.4134 52.1431 41.3298 65.8614 48.3382 70.9584C52.5053 73.9891 64.8173 75.315 72.0151 65.0865" stroke="#013878" stroke-width="0.669371"/>
<path d="M93.2297 45.5771C91.7776 50.6282 85.9183 60.1621 82.4331 56.3738C78.9478 52.5855 79.7812 53.5326 78.6447 51.449" stroke="#013878" stroke-width="0.669371" stroke-linecap="round"/>
<path d="M85.2743 45.9556L83.5696 48.0391M81.8648 50.1227L83.5696 48.0391M83.5696 48.0391L86.032 50.1227" stroke="#013878" stroke-width="0.669371" stroke-linecap="round"/>
<path d="M80.5386 54.48V80.8087L60.4605 91.0372L54.7781 82.3241V73.4215" stroke="#013878" stroke-width="0.669371" stroke-linecap="round"/>
<path d="M55.3466 79.4827C63.6809 79.1797 69.9947 69.6331 72.0151 65.0872C65.1962 74.0276 58.5215 73.4214 55.3466 73.4214V79.4827Z" fill="#013878" stroke="#013878" stroke-width="0.669371" stroke-linecap="round"/>
<path d="M84.3271 87.6274L80.4384 80.7527L70.6036 85.5761L60.7688 90.7754L54.6925 81.6923L48.9064 87.6274L53.0736 98.8029L60.7688 90.7754L67.2798 99.9394L84.3271 87.6274Z" fill="white"/>
<path d="M60.7688 90.7754L67.2798 99.9394L84.3271 87.6274L80.4384 80.7527L70.6036 85.5761L60.7688 90.7754ZM60.7688 90.7754L53.0736 98.8029L48.9064 87.6274L54.6925 81.6923L60.7688 90.7754Z" stroke="#013878" stroke-width="0.669371" stroke-linecap="round"/>
<path d="M84.895 87.4377C91.4614 88.2585 106.11 91.7943 112.171 99.3709C118.232 106.948 114.696 139.527 112.171 154.87H6.66635C9.25503 136.433 16.175 98.4996 23.1455 94.2567C31.8586 88.9531 38.867 87.4377 48.5272 87.4377" stroke="#013878" stroke-width="0.669371" stroke-linecap="round"/>
<path d="M92.6617 113.388C93.7982 121.154 95.3893 140.285 92.6617 154.681" stroke="#013878" stroke-width="0.669371" stroke-linecap="round"/>
<path d="M28.8284 113.613C26.5417 121.122 22.1037 139.799 22.6447 154.44" stroke="#013878" stroke-width="0.669371" stroke-linecap="round"/>
<circle cx="65" cy="66.1113" r="64.0676" stroke="#013878" stroke-width="1.86486"/>
</g>
</svg>
