<svg width="40" height="40" viewBox="0 0 40 40" fill="none" xmlns="http://www.w3.org/2000/svg">
<path d="M20 0C8.97217 0 0 8.97217 0 20C0 31.0278 8.97217 40 20 40C31.0287 40 40 31.0278 40 20C40 8.97217 31.0287 0 20 0ZM28.6722 23.9435C30.6174 25.6704 31.0217 26.287 31.0878 26.3922C31.8939 27.6704 30.1939 27.8261 30.1939 27.8261H26.6113C26.6113 27.8261 25.7391 27.8357 24.9939 27.3417C23.7791 26.5461 22.507 25.0035 21.613 25.2713C20.8626 25.4957 20.8696 26.5096 20.8696 27.3765C20.8696 27.687 20.6026 27.8261 20 27.8261C19.3974 27.8261 19.147 27.8261 18.88 27.8261C16.9174 27.8261 14.7878 27.1652 12.6635 24.9452C9.65826 21.807 7.02261 15.4852 7.02261 15.4852C7.02261 15.4852 6.86696 15.167 7.03652 14.973C7.2287 14.7557 7.7513 14.7835 7.7513 14.7835L11.2252 14.7826C11.2252 14.7826 11.5522 14.8443 11.787 15.0096C11.9809 15.1452 12.0887 15.4043 12.0887 15.4043C12.0887 15.4043 12.6722 17.3313 13.4157 18.56C14.8678 20.9583 15.5435 21.0191 16.0365 20.7609C16.7565 20.387 16.5217 17.8374 16.5217 17.8374C16.5217 17.8374 16.5539 16.7426 16.1783 16.2548C15.8887 15.8774 15.3348 15.6765 15.093 15.6452C14.8974 15.62 15.2243 15.2774 15.6409 15.0817C16.1974 14.8339 16.9548 14.7704 18.2609 14.7826C19.2774 14.7922 19.5704 14.853 19.967 14.9443C21.1661 15.2209 20.8696 15.9504 20.8696 18.5122C20.8696 19.333 20.7565 20.487 21.3757 20.8696C21.6426 21.0348 22.5574 21.2365 24.1852 18.593C24.9583 17.3391 25.573 15.2591 25.573 15.2591C25.573 15.2591 25.7 15.0304 25.8974 14.9174C26.0991 14.8017 26.093 14.8043 26.3696 14.8043C26.6461 14.8043 29.4191 14.7826 30.0278 14.7826C30.6357 14.7826 31.2061 14.7757 31.3043 15.1322C31.4452 15.6443 30.8557 17.3991 29.3617 19.3035C26.907 22.4287 26.6348 22.1365 28.6722 23.9435Z" fill="#013878"/>
</svg>
