<svg width="553" height="599" viewBox="0 0 553 599" fill="none" xmlns="http://www.w3.org/2000/svg">
<path d="M133.891 294.687L135.456 316.422L94.712 312.832L94.712 294.687L66.1883 269.395L53.5597 216.406L58.7006 206.538L55.0962 165.469C66.722 163.399 70.9465 177.722 71.6056 185.142L79.3696 173.614C88.3097 180.298 86.1615 190.132 83.9699 194.214C92.9099 200.897 88.1386 212.392 84.6355 217.304L113.99 243.907C113.29 237.003 111.56 221.86 110.238 216.525C108.915 211.191 114.944 205.586 118.124 203.45L133.891 236.451C145.973 263.791 140.169 291.447 133.891 294.687Z" stroke="#013878" stroke-width="2.70379"/>
<path d="M113.1 270.922C108.821 267.263 97.6856 258.878 85.0229 259.675L80.0591 244.528C84.5033 238.562 90.4548 227.292 81.7684 222.058L67.7966 241.19L70.7388 259.981" stroke="#013878" stroke-width="2.70379"/>
<path d="M81.7683 222.059L85.3525 216.116" stroke="#013878" stroke-width="2.70379"/>
<path d="M63.1779 228.686L83.9692 194.215" stroke="#013878" stroke-width="2.70379"/>
<path d="M58.7019 206.538L79.0125 174.208" stroke="#013878" stroke-width="2.70379"/>
<path d="M416.625 377.781L440.958 357.221L421.794 330.193L396.067 355.122L405.511 377.781L357.358 597.566H388.048H422.181L416.625 377.781Z" fill="#FD7900" stroke="#013878" stroke-width="2.72522" stroke-linecap="round"/>
<path d="M359.406 594.575H420.743L420.872 598.932L358.388 598.932L359.406 594.575Z" fill="#FD7900"/>
<path d="M498.564 79.5032L498.564 135.838C503.327 130.548 514.758 121.08 522.378 119.175C529.999 117.271 546.192 128.961 553.337 135.044L558.099 142.186L567.625 108.068C574.769 66.8084 550.955 45.6494 527.141 26.3422C462.843 -17.2974 380.286 6.50598 369.967 15.2339C359.647 23.9618 360.441 140.599 361.235 114.415C361.87 93.4679 381.08 60.7249 390.606 46.9718C427.439 71.0926 477.925 78.7097 498.564 79.5032Z" fill="#013878" stroke="#013878" stroke-width="0.908406"/>
<path d="M465.224 119.97C454.111 112.829 426.169 101.879 403.307 115.209H391.4C381.345 108.862 356.155 99.4991 335.834 112.829C337.421 122.35 344.407 141.551 359.648 142.186C374.889 142.821 387.167 124.466 391.4 115.209H403.307C405.689 126.846 414.738 149.803 431.884 148.534C449.031 147.264 461.255 128.962 465.224 119.97Z" fill="#013878"/>
<path d="M499.358 136.632L465.224 119.97M465.224 119.97C454.111 112.829 426.169 101.879 403.307 115.209M465.224 119.97C461.255 128.962 449.031 147.264 431.884 148.534C414.738 149.803 405.689 126.846 403.307 115.209M403.307 115.209H391.4M391.4 115.209C381.345 108.862 356.155 99.4991 335.834 112.829C337.421 122.35 344.407 141.551 359.648 142.186C374.889 142.821 387.167 124.466 391.4 115.209Z" stroke="#013878" stroke-width="2.72522"/>
<path d="M396.164 116.002L373.324 178.256L396.164 183.445" stroke="#013878" stroke-width="2.72522" stroke-linecap="round"/>
<path d="M394.59 214.944C412.838 217.509 420.706 208.528 422.359 203.716L392.651 209.756L394.59 214.944Z" stroke="#013878" stroke-width="2.72522" stroke-linecap="round"/>
<path d="M355.68 142.186C348.535 168.105 339.804 225.57 369.174 246.921C386.638 259.616 438.236 265.17 468.4 222.324" stroke="#013878" stroke-width="2.72522"/>
<path d="M557.306 140.6C551.221 161.758 526.665 201.695 512.059 185.826C497.453 169.957 500.946 173.925 496.183 165.197" stroke="#013878" stroke-width="2.72522" stroke-linecap="round"/>
<path d="M523.967 142.186L516.823 150.914M509.678 159.642L516.823 150.914M516.823 150.914L527.142 159.642" stroke="#013878" stroke-width="2.72522" stroke-linecap="round"/>
<path d="M504.121 177.891V288.18L419.977 331.027L396.163 294.528V257.236" stroke="#013878" stroke-width="2.72522" stroke-linecap="round"/>
<path d="M396.162 282.567C432.248 281.299 459.586 241.356 468.334 222.336C438.809 259.743 409.909 257.207 396.162 257.207V282.567Z" fill="#013878" stroke="#013878" stroke-width="2.72522" stroke-linecap="round"/>
<path d="M519.997 316.744L503.7 287.946L462.484 308.151L421.268 329.931L395.803 291.882L371.555 316.744L389.019 363.557L421.268 329.931L448.554 368.318L519.997 316.744Z" fill="white"/>
<path d="M421.268 329.931L448.554 368.318L519.997 316.744L503.7 287.946L462.484 308.151L421.268 329.931ZM421.268 329.931L389.019 363.557L371.555 316.744L395.803 291.882L421.268 329.931Z" stroke="#013878" stroke-width="2.72522" stroke-linecap="round"/>
<path d="M369.937 318.263C324.382 318.263 290.33 310.173 249.242 334.063C219.593 358.966 171.867 414.093 146.427 455.414C153.696 388.21 141.724 313.208 137.342 292.398L93.7299 310.562C87.3699 373.225 70.5895 514.685 112.356 542.144C144.146 563.044 215.079 471.697 264.064 419.612" stroke="#013878" stroke-width="2.72522" stroke-linecap="round"/>
<path d="M265.02 419.133C260.257 451.665 247.758 529.93 247.757 591.685" stroke="#013878" stroke-width="2.72522" stroke-linecap="round"/>
<path d="M89.6406 345.526L142.338 326L139.612 306.475L136.886 291.49L93.7292 311.016L92.3663 323.73L91.4578 332.812L89.6406 345.526Z" fill="white" stroke="#013878" stroke-width="2.36432" stroke-linecap="round"/>
<path d="M519.397 316.465C549.985 323.428 630.089 355.718 638.448 389.502C646.807 423.285 677.917 529.041 692 586.407" stroke="#013878" stroke-width="2.72596"/>
</svg>
