<svg width="595" height="639" viewBox="0 0 595 639" fill="none" xmlns="http://www.w3.org/2000/svg">
<rect x="38.5518" y="536.973" width="516.437" height="101.28" fill="white"/>
<path d="M397.402 183.308C452.919 120.233 433.108 62.2615 416.262 41.16C356.896 35.0693 237.357 24.6432 234.132 31.6643C230.907 38.6853 230.677 81.7804 230.965 102.45C220.368 101.875 209.464 107.198 205.337 109.932C203.264 120.981 217.815 135.35 225.35 141.152C202.544 229.203 242.435 250.545 265.231 250.209V284.883L242.627 309.917C213.736 309.917 150.597 316.679 129.174 343.727C107.75 370.776 75.0473 544.742 68.6644 587.424H500.468C517.054 565.21 514.982 420.172 510.423 387.897C505.585 335.296 425.573 313.993 386.171 309.917L371.918 284.883C371.726 248.099 371.457 174.934 371.918 176.546C372.494 178.56 383.436 185.753 386.171 187.192C388.36 188.343 394.57 185.082 397.402 183.308Z" fill="white"/>
<path d="M285.891 370.032L309.739 349.886L290.957 323.403L265.742 347.829L274.999 370.032L228.319 585.385H257.883H291.337L285.891 370.032Z" fill="#FD7900" stroke="#013878" stroke-width="2.60957" stroke-linecap="round"/>
<path d="M366.2 77.7695L366.2 132.968C370.868 127.785 382.072 118.508 389.54 116.642C397.009 114.776 412.88 126.23 419.882 132.191L424.55 139.188L433.886 105.758C440.888 65.3307 417.548 44.5984 394.208 25.6805C331.19 -17.079 250.278 6.24435 240.164 14.7963C230.05 23.3482 230.828 137.633 231.606 111.977C232.229 91.4526 251.056 59.3699 260.392 45.8941C296.491 69.5285 345.972 76.992 366.2 77.7695Z" fill="#013878" stroke="#013878" stroke-width="0.869856"/>
<path d="M333.524 117.419C322.632 110.422 295.247 99.6935 272.84 112.755H261.17C251.316 106.535 226.627 97.3615 206.71 110.423C208.266 119.752 215.113 138.566 230.05 139.188C244.988 139.81 257.021 121.825 261.17 112.755H272.84C275.174 124.157 284.044 146.651 300.848 145.407C317.653 144.163 329.634 126.23 333.524 117.419Z" fill="#013878"/>
<path d="M366.978 133.746L333.524 117.419M333.524 117.419C322.632 110.422 295.247 99.6935 272.84 112.755M333.524 117.419C329.634 126.23 317.653 144.163 300.848 145.407C284.044 146.651 275.174 124.157 272.84 112.755M272.84 112.755H261.17M261.17 112.755C251.316 106.535 226.627 97.3615 206.71 110.423C208.266 119.752 215.113 138.566 230.05 139.188C244.988 139.81 257.021 121.825 261.17 112.755Z" stroke="#013878" stroke-width="2.60957"/>
<path d="M265.839 113.533L243.454 174.532L265.839 179.616" stroke="#013878" stroke-width="2.60957" stroke-linecap="round"/>
<path d="M291.513 199.475C289.893 204.19 282.181 212.991 264.297 210.477" stroke="#013878" stroke-width="2.60957" stroke-linecap="round"/>
<path d="M226.16 139.188C219.158 164.585 210.6 220.891 239.386 241.811C256.502 254.25 307.072 259.693 336.636 217.71" stroke="#013878" stroke-width="2.60957"/>
<path d="M423.773 137.634C417.809 158.366 393.743 197.497 379.427 181.948C365.112 166.399 368.535 170.286 363.867 161.735" stroke="#013878" stroke-width="2.60957" stroke-linecap="round"/>
<path d="M391.096 139.188L384.094 147.74M377.092 156.292L384.094 147.74M384.094 147.74L394.208 156.292" stroke="#013878" stroke-width="2.60957" stroke-linecap="round"/>
<path d="M371.646 174.175V282.24L289.178 324.222L265.838 288.46V251.92" stroke="#013878" stroke-width="2.60957" stroke-linecap="round"/>
<path d="M268.172 276.797C302.404 275.553 328.337 236.369 336.636 217.711C308.628 254.406 281.213 251.918 268.172 251.918V276.797Z" fill="#013878" stroke="#013878" stroke-width="2.60957" stroke-linecap="round"/>
<path d="M387.207 310.227L371.235 282.01L330.84 301.808L290.444 323.148L265.487 285.867L241.721 310.227L258.837 356.096L290.444 323.148L317.187 360.761L387.207 310.227Z" fill="white"/>
<path d="M290.444 323.148L317.187 360.761L387.207 310.227L371.235 282.01L330.84 301.808L290.444 323.148ZM290.444 323.148L258.837 356.096L241.721 310.227L265.487 285.867L290.444 323.148Z" stroke="#013878" stroke-width="2.60957" stroke-linecap="round"/>
<path d="M389.541 309.451C416.511 312.82 476.677 327.332 501.572 358.43C526.468 389.528 511.946 523.249 501.572 586.222H68.2268C78.8594 510.551 107.282 354.854 135.913 337.439C171.701 315.671 200.487 309.451 240.165 309.451" stroke="#013878" stroke-width="2.60957" stroke-linecap="round"/>
<path d="M421.438 415.96C426.106 447.835 432.642 526.357 421.438 585.443" stroke="#013878" stroke-width="2.60957" stroke-linecap="round"/>
<path d="M159.252 416.886C149.86 447.703 131.631 524.362 133.853 584.458" stroke="#013878" stroke-width="2.60957" stroke-linecap="round"/>
<rect x="0.624512" y="387.414" width="593.994" height="200.735" fill="url(#paint0_linear_1_138)"/>
<defs>
<linearGradient id="paint0_linear_1_138" x1="263.405" y1="588.15" x2="263.405" y2="387.414" gradientUnits="userSpaceOnUse">
<stop stop-color="white"/>
<stop offset="1" stop-color="white" stop-opacity="0"/>
</linearGradient>
</defs>
</svg>
