<svg width="34" height="43" viewBox="0 0 34 43" fill="none" xmlns="http://www.w3.org/2000/svg">
<path fill-rule="evenodd" clip-rule="evenodd" d="M28.244 15.622C28.244 22.593 22.593 28.244 15.622 28.244C8.65107 28.244 3 22.593 3 15.622C3 8.65107 8.65107 3 15.622 3C22.593 3 28.244 8.65107 28.244 15.622ZM22.4183 29.6922C20.3635 30.6866 18.0579 31.244 15.622 31.244C6.99422 31.244 0 24.2498 0 15.622C0 6.99422 6.99422 0 15.622 0C24.2498 0 31.244 6.99422 31.244 15.622C31.244 20.7387 28.7842 25.2808 24.9826 28.1303L33.2732 40.5663L30.7771 42.2304L22.4183 29.6922Z" fill="#013878"/>
</svg>
