<svg width="123" height="92" viewBox="0 0 123 92" fill="none" xmlns="http://www.w3.org/2000/svg">
<ellipse cx="53.6709" cy="30.7052" rx="23.1441" ry="24.4221" fill="#013878"/>
<rect x="17.0085" y="8.95715" width="7.11884" height="46.3733" fill="#013878"/>
<rect x="35" y="55" width="88" height="36" rx="6.40593" fill="#FD7900"/>
<path d="M40.0227 84.0088V64.1899H56.7578V84.0088H52.2546V68.0221H44.4871V84.0088H40.0227Z" fill="white"/>
<path d="M60.6525 91.4409V64.1899H65.2459V67.4673H65.5169C65.7577 66.9856 66.0975 66.4738 66.5362 65.9318C66.9749 65.3813 67.5684 64.9125 68.3168 64.5254C69.0652 64.1297 70.02 63.9319 71.1813 63.9319C72.7124 63.9319 74.093 64.3233 75.3231 65.106C76.5618 65.8802 77.5424 67.0286 78.2649 68.5511C78.9961 70.0651 79.3617 71.9231 79.3617 74.1252C79.3617 76.3015 79.0047 78.1509 78.2908 79.6734C77.5768 81.196 76.6048 82.3572 75.3747 83.1572C74.1446 83.9572 72.7511 84.3572 71.1942 84.3572C70.0587 84.3572 69.1168 84.1679 68.3684 83.7894C67.6201 83.411 67.0179 82.955 66.562 82.4217C66.1147 81.8798 65.7663 81.368 65.5169 80.8863H65.3233V91.4409H60.6525ZM65.233 74.0994C65.233 75.3811 65.4137 76.5036 65.7749 77.467C66.1448 78.4304 66.6738 79.1831 67.362 79.725C68.0588 80.2583 68.9017 80.525 69.891 80.525C70.9232 80.525 71.7877 80.2497 72.4844 79.6992C73.1812 79.1401 73.7059 78.3788 74.0586 77.4154C74.4199 76.4434 74.6005 75.338 74.6005 74.0994C74.6005 72.8693 74.4242 71.7768 74.0715 70.822C73.7188 69.8672 73.1941 69.1188 72.4974 68.5769C71.8006 68.035 70.9318 67.764 69.891 67.764C68.8931 67.764 68.0459 68.0264 67.3491 68.5511C66.6523 69.0758 66.1233 69.8113 65.762 70.7575C65.4094 71.7037 65.233 72.8177 65.233 74.0994Z" fill="white"/>
<path d="M88.1563 84.4088C86.9004 84.4088 85.7693 84.1851 84.7628 83.7378C83.765 83.2819 82.9736 82.611 82.3887 81.725C81.8124 80.839 81.5242 79.7465 81.5242 78.4476C81.5242 77.3294 81.7307 76.4047 82.1436 75.6735C82.5564 74.9424 83.1199 74.3574 83.8338 73.9187C84.5478 73.48 85.3521 73.1489 86.2467 72.9252C87.1499 72.6929 88.0832 72.5252 89.0466 72.422C90.2079 72.3016 91.1498 72.194 91.8723 72.0994C92.5949 71.9962 93.1196 71.8414 93.4465 71.6349C93.782 71.4199 93.9497 71.0887 93.9497 70.6414V70.564C93.9497 69.592 93.6615 68.8393 93.0852 68.306C92.5089 67.7726 91.6788 67.506 90.5949 67.506C89.4509 67.506 88.5434 67.7554 87.8724 68.2544C87.2101 68.7533 86.7628 69.3425 86.5305 70.022L82.1694 69.4027C82.5134 68.1984 83.0812 67.192 83.8725 66.3834C84.6639 65.5662 85.6316 64.9555 86.7757 64.5512C87.9198 64.1383 89.1842 63.9319 90.5691 63.9319C91.524 63.9319 92.4745 64.0437 93.4207 64.2674C94.3669 64.491 95.2314 64.8609 96.0142 65.377C96.7969 65.8845 97.4249 66.577 97.898 67.4544C98.3797 68.3318 98.6205 69.4285 98.6205 70.7446V84.0088H94.1303V81.2863H93.9755C93.6916 81.8368 93.2917 82.3529 92.7755 82.8346C92.268 83.3077 91.6272 83.6905 90.853 83.983C90.0874 84.2668 89.1885 84.4088 88.1563 84.4088ZM89.3692 80.9766C90.3068 80.9766 91.1197 80.7917 91.8078 80.4218C92.496 80.0433 93.025 79.5444 93.3949 78.925C93.7734 78.3057 93.9626 77.6305 93.9626 76.8993V74.5639C93.8164 74.6843 93.5669 74.7961 93.2142 74.8993C92.8702 75.0026 92.4831 75.0929 92.053 75.1703C91.6229 75.2477 91.1971 75.3165 90.7756 75.3767C90.3541 75.437 89.9885 75.4886 89.6788 75.5316C88.9821 75.6262 88.3584 75.781 87.8079 75.9961C87.2574 76.2111 86.823 76.5122 86.5047 76.8993C86.1865 77.2778 86.0273 77.7681 86.0273 78.3702C86.0273 79.2304 86.3413 79.8799 86.9692 80.3186C87.5972 80.7573 88.3972 80.9766 89.3692 80.9766Z" fill="white"/>
<path d="M102.409 84.0088V64.1899H110.731C113.08 64.1899 114.933 64.6587 116.292 65.5964C117.66 66.534 118.344 67.8415 118.344 69.5188C118.344 70.6285 117.957 71.536 117.183 72.2413C116.417 72.9381 115.372 73.4069 114.047 73.6478C115.088 73.7338 116 73.9961 116.783 74.4348C117.574 74.8735 118.193 75.4499 118.641 76.1638C119.088 76.8778 119.312 77.6993 119.312 78.6283C119.312 79.7207 119.023 80.6712 118.447 81.4798C117.879 82.2798 117.049 82.9034 115.957 83.3507C114.873 83.7894 113.557 84.0088 112.009 84.0088H102.409ZM106.783 80.3315H112.009C112.869 80.3315 113.544 80.1293 114.034 79.725C114.525 79.3121 114.77 78.753 114.77 78.0476C114.77 77.2305 114.525 76.5896 114.034 76.1251C113.544 75.652 112.869 75.4155 112.009 75.4155H106.783V80.3315ZM106.783 72.3962H110.822C111.458 72.3962 112.004 72.3059 112.46 72.1252C112.916 71.936 113.264 71.6736 113.505 71.3381C113.746 70.9941 113.867 70.5855 113.867 70.1124C113.867 69.4328 113.587 68.8995 113.028 68.5124C112.477 68.1253 111.712 67.9318 110.731 67.9318H106.783V72.3962Z" fill="white"/>
<path d="M78.4304 63.3939V33.341H83.4962V36.9553H83.795C84.0606 36.4241 84.4353 35.8596 84.9191 35.262C85.4029 34.6549 86.0575 34.1378 86.8828 33.711C87.7081 33.2746 88.7611 33.0564 90.0418 33.0564C91.7304 33.0564 93.2529 33.488 94.6095 34.3513C95.9755 35.2051 97.057 36.4715 97.8538 38.1506C98.6602 39.8202 99.0634 41.8693 99.0634 44.2978C99.0634 46.6978 98.6697 48.7374 97.8823 50.4165C97.0949 52.0956 96.023 53.3763 94.6664 54.2585C93.3098 55.1407 91.773 55.5819 90.056 55.5819C88.8038 55.5819 87.765 55.3732 86.9397 54.9558C86.1144 54.5384 85.4504 54.0356 84.9476 53.4474C84.4543 52.8498 84.0701 52.2853 83.795 51.7541H83.5815V63.3939H78.4304ZM83.4819 44.2693C83.4819 45.6828 83.6811 46.9208 84.0796 47.9833C84.4875 49.0457 85.0709 49.8758 85.8298 50.4734C86.5982 51.0616 87.5279 51.3557 88.6188 51.3557C89.7572 51.3557 90.7106 51.0521 91.479 50.445C92.2474 49.8284 92.826 48.9888 93.215 47.9263C93.6134 46.8544 93.8126 45.6354 93.8126 44.2693C93.8126 42.9128 93.6182 41.708 93.2292 40.655C92.8403 39.602 92.2616 38.7767 91.4932 38.1791C90.7248 37.5814 89.7667 37.2826 88.6188 37.2826C87.5184 37.2826 86.584 37.5719 85.8156 38.1506C85.0472 38.7293 84.4638 39.5404 84.0653 40.5839C83.6764 41.6274 83.4819 42.8559 83.4819 44.2693Z" fill="#013878"/>
<path d="M108.762 55.6388C107.377 55.6388 106.13 55.3921 105.02 54.8988C103.919 54.3961 103.047 53.6561 102.402 52.679C101.766 51.7019 101.448 50.4972 101.448 49.0647C101.448 47.8315 101.676 46.8117 102.131 46.0053C102.587 45.199 103.208 44.5539 103.995 44.0701C104.783 43.5863 105.67 43.2211 106.656 42.9744C107.652 42.7183 108.682 42.5333 109.744 42.4195C111.025 42.2867 112.064 42.1681 112.86 42.0637C113.657 41.9499 114.236 41.7791 114.596 41.5515C114.966 41.3143 115.151 40.9491 115.151 40.4558V40.3704C115.151 39.2985 114.834 38.4684 114.198 37.8802C113.562 37.2921 112.647 36.998 111.452 36.998C110.19 36.998 109.189 37.2731 108.449 37.8233C107.719 38.3735 107.225 39.0233 106.969 39.7728L102.16 39.0897C102.539 37.7617 103.165 36.6517 104.038 35.76C104.911 34.8588 105.978 34.1853 107.24 33.7394C108.501 33.2841 109.896 33.0564 111.423 33.0564C112.476 33.0564 113.524 33.1797 114.568 33.4264C115.611 33.673 116.565 34.0809 117.428 34.6501C118.291 35.2098 118.984 35.9735 119.506 36.9411C120.037 37.9087 120.302 39.1182 120.302 40.5696V55.1977H115.351V52.1952H115.18C114.867 52.8023 114.426 53.3715 113.856 53.9028C113.297 54.4245 112.59 54.8467 111.736 55.1692C110.892 55.4823 109.901 55.6388 108.762 55.6388ZM110.1 51.8537C111.134 51.8537 112.03 51.6497 112.789 51.2418C113.548 50.8244 114.132 50.2742 114.539 49.5912C114.957 48.9082 115.166 48.1635 115.166 47.3572V44.7816C115.004 44.9144 114.729 45.0377 114.34 45.1516C113.961 45.2654 113.534 45.365 113.06 45.4504C112.585 45.5358 112.116 45.6117 111.651 45.6781C111.186 45.7445 110.783 45.8014 110.441 45.8488C109.673 45.9532 108.985 46.1239 108.378 46.3611C107.771 46.5982 107.292 46.9303 106.941 47.3572C106.59 47.7746 106.414 48.3153 106.414 48.9793C106.414 49.928 106.761 50.6442 107.453 51.128C108.146 51.6118 109.028 51.8537 110.1 51.8537Z" fill="#013878"/>
<path d="M4.91242 43.4674C4.3548 42.3567 4.11238 41.1713 4.16197 39.9173C4.18841 39.2399 4.59916 38.6352 5.23635 38.3332C11.3267 35.4439 27.6995 34.1167 43.078 32.1451C44.0972 32.0144 44.9387 32.1037 45.1436 33.063L45.5961 35.1816C45.7999 36.1349 44.7027 36.3404 43.7156 36.5894C28.7376 40.3642 13.5408 45.2717 6.47259 44.5304C5.79428 44.4595 5.2061 44.0537 4.91242 43.4674Z" fill="white"/>
<path d="M42.7234 38.5074L40.8828 29.908C40.8571 29.7869 40.9335 29.6702 41.0541 29.6479L43.2434 29.2438C43.364 29.2216 43.483 29.3017 43.5089 29.4232L45.3493 38.0222C45.3755 38.1435 45.2989 38.2599 45.1786 38.2824L42.9889 38.6868C42.8684 38.709 42.7497 38.6286 42.7234 38.5074Z" fill="white"/>
<path d="M61.536 35.8135L59.6951 27.2144C59.6691 27.0929 59.7458 26.9765 59.8663 26.9543L62.0559 26.55C62.1765 26.5277 62.2952 26.6081 62.3212 26.7295L64.1618 35.3284C64.1878 35.4498 64.1112 35.5662 63.9906 35.5885L61.8012 35.9931C61.6807 36.0154 61.5619 35.935 61.536 35.8135Z" fill="white"/>
<path d="M47.0534 45.7476L41.006 18.5178L60.025 15.1312L66.0726 42.3609L47.0534 45.7476Z" fill="white"/>
<path d="M41.4695 20.041L40.7061 16.5972L59.8019 13.1909L60.5654 16.6345L41.4695 20.041Z" fill="white"/>
<path d="M41.0654 18.1677L40.6859 16.4555C40.5698 15.9318 40.8607 15.4155 41.3736 15.2352C46.6883 13.366 52.4246 12.3044 58.6413 12.1624C59.1857 12.15 59.6711 12.5222 59.786 13.0401L60.1672 14.7597L41.0654 18.1677Z" fill="white"/>
<path d="M41.1283 21.0542L40.8118 19.6259C40.7834 19.4981 40.867 19.3758 40.9982 19.3525L61.004 15.7823C61.1353 15.7589 61.2647 15.8433 61.2928 15.9708L61.6093 17.399C61.6378 17.5268 61.5542 17.6491 61.4229 17.6726L41.4172 21.2426C41.2857 21.2661 41.1565 21.1817 41.1283 21.0542Z" fill="white"/>
<path d="M46.852 45.8996L47.6154 49.3433L66.7113 45.9374L65.9478 42.4938L46.852 45.8996Z" fill="white"/>
<path d="M47.2502 47.7687L47.6296 49.4808C47.7454 50.0044 48.2346 50.3821 48.7853 50.3725C54.493 50.2748 60.2452 49.2869 66.0495 47.2838C66.5579 47.1088 66.8475 46.5979 66.7328 46.0805L66.3518 44.3609L47.2502 47.7687Z" fill="white"/>
<path d="M46.1531 45.0737L46.4697 46.502C46.4978 46.6293 46.6271 46.7139 46.7587 46.6902L66.7645 43.1206C66.8954 43.0974 66.9788 42.9747 66.9505 42.8472L66.6339 41.4188C66.6059 41.291 66.4763 41.2066 66.345 41.2301L46.3395 44.7999C46.2082 44.8234 46.1245 44.9458 46.1531 45.0737Z" fill="white"/>
<path d="M32.0142 39.5245C31.4107 37.1137 31.1507 34.5253 31.0922 33.4659C22.7955 34.3838 9.30709 36.6755 6.0831 37.8512C3.60313 38.7555 1.61792 39.0878 2.12472 42.3465C2.64224 45.6743 5.77561 45.351 6.10666 45.3499C11.0858 45.3344 24.1011 42.1416 32.0142 39.5245Z" fill="#013878"/>
<rect x="78.4253" y="55.1918" width="5.16465" height="8.35556" fill="white"/>
</svg>
