<svg width="142" height="185" viewBox="0 0 142 185" fill="none" xmlns="http://www.w3.org/2000/svg">
<path d="M104.076 58.1712C121.461 38.4205 115.257 20.2675 109.982 13.6599C91.3926 11.7527 53.9609 8.48796 52.951 10.6865C51.9411 12.885 51.869 26.3796 51.9592 32.852C48.641 32.6718 45.2266 34.3388 43.9342 35.1947C43.285 38.6547 47.8415 43.1539 50.2009 44.971C43.0596 72.5428 55.5508 79.2255 62.6891 79.1204V89.9779L55.611 97.8169C46.5641 97.8169 26.7933 99.9344 20.0848 108.404C13.3763 116.874 3.13599 171.349 1.13727 184.714H136.35C141.544 177.758 140.895 132.342 139.467 122.235C137.952 105.764 112.898 99.0934 100.56 97.8169L96.0964 89.9779C96.0362 78.4596 95.9521 55.5492 96.0964 56.0538C96.2767 56.6845 99.7031 58.9371 100.56 59.3876C101.245 59.748 103.19 58.7269 104.076 58.1712Z" fill="white"/>
<path d="M69.1592 116.64L76.627 110.332L70.7455 102.039L62.8499 109.688L65.7485 116.64L51.1314 184.074H60.3889H70.8645L69.1592 116.64Z" fill="#FD7900" stroke="#013878" stroke-linecap="round"/>
<path d="M94.3062 25.1238L94.3063 42.4085C95.7681 40.7855 99.2761 37.8803 101.615 37.296C103.954 36.7118 108.923 40.2985 111.116 42.165L112.578 44.3561L115.501 33.888C117.694 21.2288 110.385 14.7368 103.076 8.81295C83.3435 -4.57652 58.0071 2.72682 54.84 5.40472C51.673 8.08262 51.9166 43.8691 52.1602 35.8354C52.3551 29.4084 58.2507 19.3623 61.1741 15.1425C72.478 22.5433 87.9721 24.8804 94.3062 25.1238Z" fill="#013878" stroke="#013878"/>
<path d="M84.0732 37.5364C80.6626 35.3454 72.0872 31.9858 65.071 36.0757H61.4167C58.3309 34.1282 50.6001 31.2556 44.3634 35.3455C44.8507 38.2668 46.9945 44.1581 51.672 44.3529C56.3495 44.5476 60.1174 38.9159 61.4167 36.0757H65.071C65.8018 39.6462 68.5791 46.6899 73.8413 46.3004C79.1034 45.9109 82.8551 40.2954 84.0732 37.5364Z" fill="#013878"/>
<path d="M94.5488 42.6487L84.0732 37.5364M84.0732 37.5364C80.6626 35.3454 72.0872 31.9858 65.071 36.0757M84.0732 37.5364C82.8551 40.2954 79.1034 45.9109 73.8413 46.3004C68.5791 46.6899 65.8018 39.6462 65.071 36.0757M65.071 36.0757H61.4167M61.4167 36.0757C58.3309 34.1282 50.6001 31.2556 44.3634 35.3455C44.8507 38.2668 46.9945 44.1581 51.672 44.3529C56.3495 44.5476 60.1174 38.9159 61.4167 36.0757Z" stroke="#013878"/>
<path d="M62.8789 36.3242L55.8696 55.425L62.8789 57.0171" stroke="#013878" stroke-linecap="round"/>
<path d="M70.9199 63.2344C70.4126 64.7107 67.9978 67.4664 62.3976 66.6793" stroke="#013878" stroke-linecap="round"/>
<path d="M50.455 44.3555C48.2624 52.308 45.5826 69.9394 54.5965 76.4903C59.9561 80.3854 75.7913 82.0895 85.0488 68.9434" stroke="#013878"/>
<path d="M112.334 43.8711C110.466 50.363 102.93 62.6164 98.4477 57.7475C93.9652 52.8786 95.0371 54.0958 93.5754 51.4179" stroke="#013878" stroke-linecap="round"/>
<path d="M102.102 44.3555L99.9091 47.0334M97.7166 49.7113L99.9091 47.0334M99.9091 47.0334L103.076 49.7113" stroke="#013878" stroke-linecap="round"/>
<path d="M96.0117 55.3125V89.1514L70.1882 102.297L62.8796 91.099V79.657" stroke="#013878" stroke-linecap="round"/>
<path d="M63.6104 87.4472C74.3296 87.0577 82.4502 74.788 85.0488 68.9453C76.2786 80.4359 67.6939 79.6569 63.6104 79.6569V87.4472Z" fill="#013878" stroke="#013878" stroke-linecap="round"/>
<path d="M100.883 97.9138L95.8813 89.0781L83.2322 95.2774L70.5831 101.96L62.768 90.2858L55.3262 97.9138L60.6858 112.277L70.5831 101.96L78.9572 113.738L100.883 97.9138Z" fill="white"/>
<path d="M70.5831 101.96L78.9572 113.738L100.883 97.9138L95.8813 89.0781L83.2322 95.2774L70.5831 101.96ZM70.5831 101.96L60.6858 112.277L55.3262 97.9138L62.768 90.2858L70.5831 101.96Z" stroke="#013878" stroke-linecap="round"/>
<path d="M101.614 97.6719C110.06 98.7268 128.9 103.271 136.696 113.009C144.491 122.747 139.944 164.619 136.696 184.338H1.00003C4.32948 160.643 13.2297 111.889 22.1948 106.436C33.4013 99.6194 42.4152 97.6719 54.8397 97.6719" stroke="#013878" stroke-linecap="round"/>
<path d="M111.602 131.023C113.064 141.005 115.11 165.593 111.602 184.095" stroke="#013878" stroke-linecap="round"/>
<path d="M29.5031 131.313C26.562 140.963 20.854 164.968 21.5498 183.786" stroke="#013878" stroke-linecap="round"/>
</svg>
