<svg width="118" height="118" viewBox="0 0 118 118" fill="none" xmlns="http://www.w3.org/2000/svg">
<path d="M59 0C91.586 0 118 26.414 118 59C118 91.586 91.586 118 59 118C26.414 118 0 91.586 0 59C0 26.414 26.414 0 59 0ZM79.3524 83.0489C80.4375 79.7193 85.5218 46.5356 86.1503 39.9969C86.3401 38.0165 85.7142 36.7006 84.488 36.1131C83.0053 35.4 80.8095 35.7566 78.2622 36.6749C74.7684 37.9344 30.1028 56.8991 27.5222 57.997C25.075 59.0359 22.7612 60.1697 22.7612 61.8115C22.7612 62.9658 23.4461 63.6148 25.3341 64.2895C27.299 64.9898 32.2473 66.4904 35.1691 67.2959C37.9832 68.0732 41.1871 67.3985 42.9828 66.2827C44.8862 65.1001 66.8521 50.4014 68.4297 49.1137C70.0048 47.8259 71.2617 49.4754 69.974 50.7657C68.6863 52.0534 53.6079 66.688 51.6199 68.7145C49.206 71.1745 50.9196 73.7243 52.5382 74.7453C54.3877 75.9099 67.6884 84.8317 69.6918 86.2631C71.6953 87.6945 73.7269 88.3435 75.5867 88.3435C77.4465 88.3435 78.4264 85.8937 79.3524 83.0489Z" fill="#013878"/>
</svg>
