<svg width="119" height="118" viewBox="0 0 119 118" fill="none" xmlns="http://www.w3.org/2000/svg">
<path d="M59.3091 0C26.777 0 0.309082 26.4679 0.309082 59C0.309082 91.5321 26.777 118 59.3091 118C91.8437 118 118.309 91.5321 118.309 59C118.309 26.4679 91.8437 0 59.3091 0ZM84.892 70.6333C90.6304 75.7278 91.8232 77.5465 92.0182 77.8569C94.3961 81.6278 89.3811 82.087 89.3811 82.087H78.8124C78.8124 82.087 76.2395 82.1152 74.0411 80.6581C70.4575 78.311 66.7046 73.7603 64.0676 74.5504C61.8538 75.2122 61.8743 78.2032 61.8743 80.7607C61.8743 81.6765 61.0868 82.087 59.3091 82.087C57.5314 82.087 56.7926 82.087 56.0051 82.087C50.2154 82.087 43.9332 80.1374 37.6663 73.5884C28.801 64.3305 21.0258 45.6814 21.0258 45.6814C21.0258 45.6814 20.5666 44.7425 21.0668 44.1705C21.6337 43.5292 23.1754 43.6113 23.1754 43.6113L33.4235 43.6087C33.4235 43.6087 34.388 43.7908 35.0806 44.2782C35.6526 44.6784 35.9707 45.4428 35.9707 45.4428C35.9707 45.4428 37.692 51.1273 39.8853 54.752C44.1692 61.8269 46.1623 62.0064 47.6168 61.2446C49.7408 60.1415 49.0482 52.6203 49.0482 52.6203C49.0482 52.6203 49.1431 49.3907 48.035 47.9516C47.1807 46.8383 45.5467 46.2457 44.8336 46.1534C44.2564 46.079 45.2209 45.0683 46.4496 44.4911C48.0914 43.76 50.3257 43.5728 54.1786 43.6087C57.1774 43.6369 58.0419 43.8165 59.2116 44.0858C62.749 44.9016 61.8743 47.0538 61.8743 54.6109C61.8743 57.0325 61.5408 60.4365 63.3673 61.5652C64.1548 62.0526 66.8534 62.6477 71.6555 54.8495C73.936 51.1504 75.7496 45.0144 75.7496 45.0144C75.7496 45.0144 76.1241 44.3398 76.7064 44.0063C77.3015 43.6651 77.2836 43.6728 78.0993 43.6728C78.915 43.6728 87.0955 43.6087 88.8912 43.6087C90.6843 43.6087 92.367 43.5882 92.6569 44.6399C93.0725 46.1508 91.3333 51.3274 86.9262 56.9453C79.6846 66.1646 78.8817 65.3027 84.892 70.6333Z" fill="#FD7900"/>
</svg>
