<svg width="153" height="199" viewBox="0 0 153 199" fill="none" xmlns="http://www.w3.org/2000/svg">
<path d="M112.453 61.8848C131.198 40.5881 124.509 21.0143 118.821 13.8895C98.7763 11.833 58.4147 8.31273 57.3258 10.6833C56.2369 13.054 56.1591 27.6048 56.2563 34.5838C52.6784 34.3895 48.9968 36.1869 47.6033 37.1099C46.9033 40.8407 51.8164 45.6921 54.3605 47.6514C46.6602 77.3812 60.1292 84.587 67.8262 84.4737V96.181L60.194 104.634C50.439 104.634 29.1207 106.917 21.8871 116.05C14.6536 125.182 3.61172 183.921 1.45656 198.332H147.253C152.853 190.832 152.153 141.861 150.614 130.963C148.98 113.203 121.965 106.01 108.661 104.634L103.848 96.181C103.783 83.7612 103.693 59.0575 103.848 59.6016C104.043 60.2817 107.737 62.7106 108.661 63.1964C109.4 63.585 111.497 62.4839 112.453 61.8848Z" fill="white"/>
<path d="M74.8021 124.932L82.8544 118.129L76.5126 109.188L67.9989 117.435L71.1245 124.932L55.3633 197.644H65.3454H76.6409L74.8021 124.932Z" fill="#FD7900" stroke="#013878" stroke-width="0.881105" stroke-linecap="round"/>
<path d="M101.918 26.2503L101.918 44.8878C103.494 43.1378 107.277 40.0053 109.799 39.3753C112.32 38.7453 117.679 42.6128 120.043 44.6253L121.619 46.9879L124.772 35.7004C127.136 22.0504 119.255 15.0503 111.375 8.66276C90.0971 -5.77472 62.7775 2.10026 59.3626 4.98776C55.9477 7.87526 56.2104 46.4628 56.473 37.8003C56.6832 30.8703 63.0402 20.0378 66.1925 15.4878C78.3811 23.4678 95.088 25.9878 101.918 26.2503Z" fill="#013878" stroke="#013878" stroke-width="0.293702"/>
<path d="M90.8853 39.6383C87.2077 37.2757 77.9611 33.6532 70.3957 38.0632H66.4554C63.1281 35.9633 54.7921 32.8659 48.0673 37.2759C48.5927 40.4258 50.9044 46.7782 55.948 46.9882C60.9915 47.1982 65.0544 41.1257 66.4554 38.0632H70.3957C71.1838 41.9132 74.1784 49.5082 79.8525 49.0882C85.5265 48.6682 89.5719 42.6133 90.8853 39.6383Z" fill="#013878"/>
<path d="M102.181 45.1507L90.8853 39.6383M90.8853 39.6383C87.2077 37.2757 77.9611 33.6532 70.3957 38.0632M90.8853 39.6383C89.5719 42.6133 85.5265 48.6682 79.8525 49.0882C74.1784 49.5082 71.1838 41.9132 70.3957 38.0632M70.3957 38.0632H66.4554M66.4554 38.0632C63.1281 35.9633 54.7921 32.8659 48.0674 37.2759C48.5927 40.4258 50.9044 46.7782 55.948 46.9882C60.9915 47.1982 65.0544 41.1257 66.4554 38.0632Z" stroke="#013878" stroke-width="0.881105"/>
<path d="M68.0317 38.3257L60.4737 58.9215L68.0317 60.6382" stroke="#013878" stroke-width="0.881105" stroke-linecap="round"/>
<path d="M76.7005 67.344C76.1534 68.9358 73.5496 71.9073 67.5111 71.0585" stroke="#013878" stroke-width="0.881105" stroke-linecap="round"/>
<path d="M54.6343 46.9885C52.2701 55.5635 49.3805 74.5749 59.0999 81.6386C64.879 85.8386 81.9537 87.6761 91.9358 73.501" stroke="#013878" stroke-width="0.881105"/>
<path d="M121.357 46.4636C119.343 53.4636 111.217 66.6761 106.384 61.4261C101.551 56.1761 102.706 57.4886 101.13 54.6011" stroke="#013878" stroke-width="0.881105" stroke-linecap="round"/>
<path d="M110.324 46.9885L107.959 49.876M105.595 52.7635L107.959 49.876M107.959 49.876L111.374 52.7635" stroke="#013878" stroke-width="0.881105" stroke-linecap="round"/>
<path d="M103.756 58.8015V95.2891L75.9117 109.464L68.0311 97.3891V85.0515" stroke="#013878" stroke-width="0.881105" stroke-linecap="round"/>
<path d="M68.8193 93.4505C80.3776 93.0305 89.1338 79.8005 91.9358 73.5005C82.4791 85.8905 73.2225 85.0505 68.8193 85.0505V93.4505Z" fill="#013878" stroke="#013878" stroke-width="0.881105" stroke-linecap="round"/>
<path d="M109.011 104.738L103.618 95.2112L89.9785 101.896L76.3393 109.101L67.9125 96.5134L59.8882 104.738L65.6673 120.226L76.3393 109.101L85.3688 121.801L109.011 104.738Z" fill="white"/>
<path d="M76.3393 109.101L85.3688 121.801L109.011 104.738L103.618 95.2112L89.9785 101.896L76.3393 109.101ZM76.3393 109.101L65.6673 120.226L59.8882 104.738L67.9125 96.5134L76.3393 109.101Z" stroke="#013878" stroke-width="0.881105" stroke-linecap="round"/>
<path d="M109.799 104.476C118.905 105.614 139.22 110.514 147.626 121.014C156.032 131.514 151.128 176.664 147.626 197.926H1.30912C4.89917 172.376 14.496 119.806 24.1629 113.926C36.2465 106.576 45.9659 104.476 59.3629 104.476" stroke="#013878" stroke-width="0.881105" stroke-linecap="round"/>
<path d="M120.569 140.439C122.145 151.201 124.352 177.714 120.569 197.664" stroke="#013878" stroke-width="0.881105" stroke-linecap="round"/>
<path d="M32.0431 140.752C28.8719 151.157 22.717 177.04 23.4674 197.331" stroke="#013878" stroke-width="0.881105" stroke-linecap="round"/>
</svg>
